<svg width="13" height="23" viewBox="0 0 13 23" fill="none" xmlns="http://www.w3.org/2000/svg">
<path d="M11.7099 6.48945V1.18945H1.60986V6.48945C1.60986 8.41945 2.74986 10.0895 4.39986 10.8495C4.78986 11.0295 4.78986 11.5495 4.39986 11.7295C2.74986 12.4895 1.60986 14.1595 1.60986 16.0895V21.3895H11.7099V16.0895C11.7099 14.1595 10.5699 12.4895 8.91986 11.7295C8.52986 11.5495 8.52986 11.0295 8.91986 10.8495C10.5699 10.0895 11.7099 8.41945 11.7099 6.48945Z" stroke="black" stroke-width="2"/>
<path d="M8.62986 11.2889C8.62986 11.1089 8.72986 10.9389 8.91986 10.8489C10.5699 10.0889 11.7099 8.41891 11.7099 6.48891V5.87891H1.60986V6.48891C1.60986 8.41891 2.74986 10.0889 4.39986 10.8489C4.58986 10.9389 4.68986 11.1189 4.68986 11.2889H5.55986V18.7789C4.04986 19.2789 3.31986 20.6589 1.60986 20.6589V21.3889H11.7099V20.6589C9.99986 20.6589 9.27986 19.2689 7.75986 18.7789V11.2889H8.62986Z" fill="black"/>
</svg>
