<svg width="32" height="33" viewBox="0 0 32 33" fill="none" xmlns="http://www.w3.org/2000/svg">
<path d="M31.85 32.2895H0V0.439453H31.85V32.2895ZM3.5 28.7895H28.35V3.93945H3.5V28.7895Z" fill="white"/>
<path d="M21.56 27.49H10.28C7.25999 27.49 4.79999 25.03 4.79999 22.01V10.73C4.79999 7.71 7.25999 5.25 10.28 5.25H21.56C24.58 5.25 27.04 7.71 27.04 10.73V22.01C27.04 25.03 24.58 27.49 21.56 27.49ZM10.28 8.74C9.18999 8.74 8.29999 9.63 8.29999 10.72V22C8.29999 23.09 9.18999 23.98 10.28 23.98H21.56C22.65 23.98 23.54 23.09 23.54 22V10.72C23.54 9.63 22.65 8.74 21.56 8.74H10.28Z" fill="white"/>
<path d="M15.92 21.8304C12.91 21.8304 10.45 19.3804 10.45 16.3704C10.45 13.3604 12.9 10.9004 15.92 10.9004C18.94 10.9004 21.39 13.3504 21.39 16.3704C21.39 19.3904 18.94 21.8304 15.92 21.8304ZM15.92 14.4004C14.84 14.4004 13.95 15.2804 13.95 16.3704C13.95 17.4604 14.83 18.3304 15.92 18.3304C17.01 18.3304 17.89 17.4504 17.89 16.3704C17.89 15.2904 17.01 14.4004 15.92 14.4004Z" fill="white"/>
<path d="M21.6 11.8498C22.2462 11.8498 22.77 11.3259 22.77 10.6798C22.77 10.0336 22.2462 9.50977 21.6 9.50977C20.9538 9.50977 20.43 10.0336 20.43 10.6798C20.43 11.3259 20.9538 11.8498 21.6 11.8498Z" fill="white"/>
</svg>
