<svg width="334" height="220" viewBox="0 0 334 220" fill="none" xmlns="http://www.w3.org/2000/svg">
<path d="M222.808 146.936C221.885 146.11 220.804 145.792 219.531 145.887C218.513 145.951 217.94 146.618 217.367 147.286C217.24 147.444 217.208 147.667 217.208 147.889C217.176 149.446 217.208 150.972 217.654 152.465C217.749 152.783 217.876 153.037 218.099 153.196C219.054 153.863 220.072 154.149 221.249 153.99C222.14 153.863 222.745 153.291 223.349 152.688C223.795 152.243 223.985 151.702 223.985 150.972C223.985 150.876 223.954 150.686 223.922 150.495C223.763 149.51 223.349 148.588 223.222 147.572C223.19 147.317 222.999 147.063 222.808 146.904V146.936Z" fill="#F1F138"/>
<path d="M244.35 141.534C244.159 141.724 244.127 142.01 244.064 142.265C243.968 142.614 244.064 142.9 244.318 143.154C244.668 143.472 245.082 143.758 245.591 143.822C246.005 143.853 246.45 143.981 246.864 144.012C248.359 144.171 249.6 143.663 250.555 142.487C250.777 142.233 250.905 141.947 250.873 141.502C250.809 140.93 250.618 140.326 249.982 139.977C249.473 139.691 248.932 139.5 248.391 139.437C247.85 139.373 247.309 139.309 246.8 139.5C245.718 139.881 245.082 140.739 244.35 141.534Z" fill="#F1F138"/>
<path d="M218.736 184.113C217.845 183.795 217.081 183.096 216 183.382C215.427 183.541 215.045 183.191 214.79 182.651C214.504 182.047 214.249 181.412 213.868 180.84C213.74 180.681 213.677 180.427 213.677 180.236C213.613 179.442 213.422 178.679 213.518 177.885C213.518 177.567 213.486 177.249 213.39 176.931C213.04 175.47 212.722 174.04 212.436 172.578C212.213 171.561 212.34 171.339 213.263 170.926C213.868 170.671 214.409 170.322 214.981 170.004C216.031 169.369 216.89 168.479 217.527 167.43C217.909 166.795 217.909 166.127 217.527 165.492C217.145 164.825 216.54 164.411 215.777 164.284C214.472 164.094 213.263 164.126 212.181 165.047C211.736 165.428 211.418 165.301 211.322 164.729C211.068 162.982 210.495 161.329 210.24 159.582C210.113 158.692 210.081 157.739 209.668 156.912C209.509 156.531 209.222 156.245 209.063 155.864C208.65 154.815 207.345 154.116 206.231 154.307C204.959 154.529 204.004 155.419 203.686 156.69C203.559 157.262 203.527 157.802 203.59 158.152C203.654 159.582 203.622 160.757 203.813 161.933C204.068 163.649 204.45 165.301 204.704 167.017C204.863 168.034 205.022 169.051 205.181 170.036C205.372 171.243 205.595 172.483 205.786 173.69C205.945 174.707 206.327 175.66 206.518 176.677C206.995 179.251 207.599 181.793 208.745 184.176C209.509 185.797 210.718 186.877 212.531 187.131C213.072 187.227 213.581 187.322 214.122 187.449C215.618 187.799 216.954 187.449 218.195 186.591C218.927 186.083 219.086 185.352 219.086 184.526C219.086 184.303 218.99 184.144 218.8 184.081L218.736 184.113Z" fill="#F1F138"/>
<path d="M307.699 129.618C307.126 127.425 306.744 125.201 306.363 122.945C306.204 122.055 305.822 121.356 305.026 120.943C304.835 120.848 304.613 120.784 304.454 120.625C303.817 120.117 303.117 120.149 302.481 120.53C301.304 121.229 300.19 122.023 300.254 123.612C300.254 124.152 300.126 124.216 299.554 124.12C298.313 123.898 297.104 123.707 295.926 124.438C295.64 124.629 295.449 124.438 295.354 124.216C295.29 124.089 295.29 123.962 295.29 123.835C294.972 121.864 294.654 119.894 294.304 117.924C294.113 116.876 294.017 115.827 293.508 114.874C293.126 114.206 292.649 113.571 292.267 112.872C292.044 112.459 291.631 112.141 291.249 111.823C290.899 111.569 290.485 111.283 290.04 111.41C289.181 111.633 288.354 111.982 287.908 112.872C287.59 113.571 287.526 114.27 287.749 115.001C288.099 116.145 288.385 117.289 288.576 118.464C288.895 120.339 289.244 122.246 289.531 124.12C289.785 125.868 290.167 127.616 290.295 129.395C290.295 129.84 290.199 130.285 290.295 130.762C290.549 131.906 290.676 133.113 290.867 134.257C291.09 135.687 291.472 137.117 291.472 138.579C291.472 139.182 291.567 139.818 291.663 140.422C291.981 142.106 292.363 143.758 292.522 145.442C292.554 145.887 292.744 146.268 292.872 146.681C293.094 147.444 293.635 147.921 294.399 148.143C294.908 148.27 295.481 148.397 295.99 148.334C297.04 148.207 297.931 147.762 298.313 146.618C298.726 145.41 298.599 144.235 298.472 143.027C298.345 141.566 297.867 140.167 297.772 138.706C297.708 137.721 297.613 136.767 297.454 135.814C297.167 134.098 297.008 132.382 296.658 130.698C296.563 130.317 296.594 129.935 296.849 129.618C297.517 128.823 298.122 127.934 299.045 127.362C299.395 127.139 299.713 126.917 300.031 126.631C300.381 126.313 300.604 126.377 300.731 126.821C300.858 127.33 300.954 127.838 301.017 128.347C301.208 129.681 301.335 131.016 301.622 132.35C302.067 134.321 302.385 136.291 302.29 138.293C302.29 138.96 302.29 139.659 302.29 140.326C302.29 140.803 302.385 141.248 302.767 141.566C304.263 142.932 306.649 142.646 307.763 140.962C308.399 139.977 308.781 138.896 308.781 137.689C308.781 136.386 308.781 135.083 308.495 133.812C308.208 132.382 308.017 130.921 307.667 129.522L307.699 129.618Z" fill="#F1F138"/>
<path d="M300.286 118.018C300.795 117.923 301.241 118.114 301.718 118.177C302.418 118.241 303.055 118.146 303.659 117.796C304.932 117.065 305.282 115.921 305.25 114.587C305.25 114.142 305.059 113.824 304.741 113.538C304.073 112.902 303.277 112.744 302.545 112.807C302.291 112.807 302.164 112.775 302.005 112.775C300.859 112.775 299.905 113.22 299.364 114.205C298.759 115.317 298.791 116.493 299.523 117.574C299.682 117.828 299.905 118.082 300.255 118.018H300.286Z" fill="#F1F138"/>
<path d="M322.273 117.003C321.954 116.749 321.636 116.527 321.318 116.272C320.904 115.923 320.459 115.923 319.95 116.082C318.804 116.431 317.723 116.908 316.8 117.702C316.227 118.179 316.004 118.052 315.877 117.321C315.877 117.257 315.877 117.226 315.877 117.162C315.782 115.923 315.591 114.683 315.718 113.444C315.814 112.491 315.909 111.474 315.814 110.521C315.623 108.741 315.686 106.962 315.877 105.182C316.068 103.594 316.195 101.91 317.691 100.861C317.945 100.67 318.009 100.353 317.914 100.035C317.691 99.3039 317.245 98.732 316.609 98.3189C316.323 98.16 315.973 98.0011 315.686 98.1282C315.177 98.3507 314.573 98.3824 314.064 98.6366C312.536 99.3993 311.645 100.702 311.518 102.354C311.359 104.325 311.041 106.263 310.945 108.233C310.882 109.854 310.723 111.474 310.786 113.095C310.85 114.461 310.914 115.827 310.914 117.226C310.914 118.592 310.913 119.927 311.009 121.293C311.104 122.5 311.263 123.708 311.232 124.947C311.168 127.044 311.391 129.11 311.741 131.175C312.059 133.082 312.282 135.02 312.409 136.958C312.504 138.388 312.727 139.818 313.204 141.153C313.682 142.551 314.095 143.981 314.318 145.474C314.414 146.11 314.636 146.745 314.827 147.349C315.273 148.684 317.214 150.114 319.25 149.129C320.045 148.747 320.427 147.921 320.268 147.031C320.204 146.682 320.109 146.332 319.918 146.046C319.632 145.538 319.473 144.998 319.377 144.426C319.186 143.282 318.932 142.138 318.582 141.058C318.104 139.596 317.723 138.102 317.627 136.545C317.468 134.289 317.182 132.033 316.832 129.777C316.577 128.22 316.482 126.663 316.45 125.074C316.45 124.661 316.609 124.407 316.927 124.216C317.118 124.121 317.309 124.026 317.532 123.962C319.091 123.327 320.204 122.151 321.286 120.943C321.732 120.435 321.986 119.799 322.336 119.227C322.559 118.846 322.654 118.433 322.686 117.893C322.718 117.607 322.591 117.289 322.273 117.067V117.003Z" fill="#F1F138"/>
<path d="M226.404 164.73C226.213 163.364 226.404 161.966 226.023 160.631C225.832 159.932 225.577 159.233 225.482 158.502C225.45 158.248 225.291 157.994 225.132 157.772C223.509 155.643 221.059 155.833 219.213 157.358C219.086 157.454 218.991 157.613 218.927 157.74C218.513 158.598 218.068 159.424 217.877 160.345C217.813 160.568 217.75 160.79 217.813 161.044C218.036 162.125 218.227 163.205 218.418 164.286C218.609 165.366 218.736 166.478 219.341 167.431C219.563 167.781 219.691 168.226 219.691 168.671C219.691 169.306 219.85 169.91 219.945 170.514C220.327 172.706 220.836 174.899 221.059 177.123C221.218 178.553 221.6 179.983 222.363 181.254C223.032 182.334 224.336 182.43 225.132 181.476C225.768 180.714 226.436 179.951 226.213 178.807C226.213 178.712 226.213 178.585 226.245 178.489C226.468 176.678 226.468 174.867 226.468 173.056C226.468 171.944 226.436 170.831 226.468 169.37C226.436 168.035 226.659 166.351 226.436 164.635L226.404 164.73Z" fill="#F1F138"/>
<path d="M202.699 163.332C201.267 162.983 199.931 163.237 198.849 164.222C197.926 165.048 197.163 166.033 196.463 167.082C195.985 167.813 195.89 167.813 195.222 167.304C194.713 166.891 194.172 166.51 193.631 166.192C192.772 165.652 191.754 165.875 191.054 166.605C190.354 167.336 190.226 168.226 190.385 169.179C190.513 170.196 190.672 171.213 190.958 172.198C191.467 174.073 192.135 175.916 192.422 177.822C192.581 178.934 192.867 180.047 193.217 181.127C193.44 181.826 193.726 182.493 193.79 183.224C193.981 184.877 194.394 186.497 194.808 188.118C195.063 189.166 196.113 189.992 197.067 189.961C197.163 189.961 197.29 189.961 197.385 189.961C199.167 189.865 199.899 189.103 199.804 187.355C199.74 186.211 199.581 185.035 199.422 183.891C199.135 182.08 198.626 180.301 198.244 178.521C198.085 177.822 198.085 177.123 197.863 176.456C197.576 175.566 197.608 174.645 197.735 173.723C197.958 172.198 198.817 170.99 199.867 170.005C200.917 169.02 201.744 167.845 202.667 166.764C203.144 166.192 203.399 165.493 203.526 164.794C203.654 164 203.431 163.587 202.667 163.396L202.699 163.332Z" fill="#F1F138"/>
<path d="M255.549 163.459C255.199 162.379 254.945 161.267 254.627 160.186C254.022 158.184 253.64 156.151 252.813 154.212C252.654 153.863 252.558 153.513 252.527 153.132C252.336 151.702 252.081 150.24 251.89 148.81C251.763 147.889 251.286 147.063 250.395 146.713C249.313 146.268 248.168 146.014 247.022 146.618C246.386 146.936 245.972 147.444 245.527 147.984C244.986 148.652 244.668 149.351 244.986 150.24C245.049 150.399 245.049 150.622 245.049 150.812C245.304 152.909 245.59 154.975 246.004 157.04C246.29 158.375 246.863 159.646 247.086 161.012C247.213 161.807 247.34 162.601 247.563 163.396C247.659 163.713 247.945 164.063 247.627 164.381C247.308 164.667 246.895 164.412 246.545 164.381H246.481C245.399 163.84 244.604 164.285 243.904 165.08C243.363 165.683 242.886 166.319 242.44 167.018C241.581 168.321 240.404 169.306 239.036 170.1C238.622 170.354 238.145 170.482 237.636 170.482C236.713 170.482 236.268 170.196 236.077 169.274C235.918 168.416 235.886 167.558 236.14 166.732C236.363 165.969 236.49 165.207 236.49 164.412C236.49 163.205 236.809 162.061 237.349 160.981C237.572 160.568 237.636 160.123 237.699 159.646C237.795 158.915 237.986 158.216 238.336 157.549C238.94 156.468 239.545 155.388 239.736 154.117C239.799 153.64 240.086 153.481 240.627 153.513C240.945 153.513 241.199 153.45 241.486 153.354C241.772 153.259 242.027 153.164 242.345 153.1C243.904 152.878 244.604 151.384 243.84 150.018C243.745 149.827 243.618 149.637 243.49 149.478C242.568 148.016 240.627 147.253 238.972 147.762C238.368 147.952 237.795 148.143 237.19 148.302C236.458 148.493 235.759 148.779 235.154 149.287C234.931 149.478 234.677 149.668 234.422 149.795C231.94 150.908 230.604 152.973 229.586 155.356C229.045 156.627 228.886 158.025 228.536 159.36C228.154 160.758 227.836 162.188 227.868 163.491C227.804 164.476 227.899 165.239 228.058 166.001C228.472 167.971 229.268 169.814 230.063 171.626C230.413 172.42 230.954 173.183 231.59 173.818C232.036 174.263 232.609 174.517 233.118 174.867C234.263 175.693 235.536 176.138 236.968 176.233C237.445 176.265 237.954 176.233 238.431 176.17C240.149 175.979 241.804 175.566 243.236 174.549C244.986 173.31 246.481 171.784 247.754 170.037C248.136 169.528 248.454 169.02 248.804 168.48C248.931 168.289 249.186 168.098 249.313 168.289C249.727 168.861 250.395 168.829 250.936 169.115C251.636 169.465 252.463 169.369 253.195 169.624C253.29 169.624 253.418 169.592 253.513 169.56C254.499 169.465 255.072 168.797 255.677 168.098C256.186 167.526 256.377 166.859 256.186 166.128C255.963 165.239 255.804 164.349 255.518 163.459H255.549Z" fill="#F1F138"/>
<path d="M288.163 145.314C288.29 144.488 288.259 143.662 288.29 142.804C288.29 142.423 288.354 142.041 288.418 141.692C288.545 141.088 288.736 140.484 288.64 140.008C288.64 138.482 288.354 137.18 287.877 135.909C287.622 135.209 287.336 134.51 287.304 133.716C287.304 133.462 287.177 133.239 287.018 133.049C286.668 132.572 286.35 132.064 285.968 131.587C284.345 129.553 282.277 128.95 279.731 129.522C278.459 129.808 277.281 130.316 276.072 130.793C274.29 131.46 273.018 132.667 272.095 134.32C271.331 135.718 272.063 137.116 273.654 137.275C274.8 137.37 275.945 137.338 276.836 136.449C276.963 136.322 277.154 136.226 277.281 136.099C277.727 135.781 278.236 135.591 278.745 135.4C279 135.305 279.222 135.305 279.381 135.559C279.54 135.781 279.381 136.004 279.222 136.131C278.84 136.481 278.459 136.83 278.045 137.116C277.663 137.402 277.281 137.752 277.09 138.196C276.55 139.34 275.913 140.421 275.563 141.66C274.959 143.884 274.831 146.045 275.309 148.269C275.5 149.096 275.786 149.89 276.486 150.43C278.172 151.797 280.05 152.273 282.181 151.955C282.563 151.892 282.913 151.955 283.168 152.178C283.963 152.94 284.981 153.099 286 153.226C287.909 153.417 289.15 152.305 289.245 150.398C289.277 149.668 289.15 149 288.831 148.365C288.386 147.411 287.94 146.395 288.1 145.314H288.163ZM281.322 147.38C280.909 147.411 280.877 146.998 280.813 146.681C280.686 145.918 280.686 145.124 280.527 144.361C280.4 143.662 280.654 142.995 280.781 142.296C280.781 142.168 280.877 142.01 281.036 142.041C281.195 142.041 281.259 142.2 281.259 142.327C281.29 142.518 281.322 142.709 281.322 142.899C281.418 144.139 281.354 145.378 281.609 146.458C281.609 146.903 281.736 147.316 281.29 147.348L281.322 147.38Z" fill="#F1F138"/>
<path d="M269.581 139.151C269.358 138.992 269.072 138.929 268.817 138.897C267.99 138.802 267.163 138.802 266.304 138.961C265.063 139.183 263.981 139.85 262.708 139.946C262.581 139.946 262.454 140.041 262.326 140.105C261.117 140.963 259.813 141.693 258.795 142.837C258.508 143.155 258.19 143.409 257.745 143.536C257.045 143.695 256.599 144.204 256.472 144.871C256.313 145.57 256.186 146.301 256.345 147.032C257.013 150.178 257.649 153.323 258.254 156.501C258.636 158.503 259.272 160.473 259.526 162.538C259.686 163.714 259.813 164.89 260.099 166.034C260.386 167.273 260.64 168.512 260.736 169.783C260.799 170.641 260.958 171.499 261.213 172.325C261.595 173.596 262.167 173.978 263.249 173.914C263.663 173.914 264.076 173.819 264.458 173.692C265.063 173.469 265.572 173.056 265.699 172.421C265.826 171.881 265.922 171.309 265.858 170.737C265.604 168.798 265.508 166.86 264.967 164.985C264.936 164.826 264.904 164.667 264.904 164.509C264.808 163.396 264.713 162.284 264.554 161.204C264.49 160.695 264.49 160.187 264.554 159.679C264.586 159.329 264.776 159.17 265.095 159.107C266.622 158.821 267.958 158.185 269.231 157.295C270.058 156.723 270.726 156.056 271.14 155.135C271.617 154.054 272.126 152.974 272.508 151.83C272.763 151.067 273.145 150.336 273.272 149.542C273.495 148.271 273.59 146.968 273.717 145.697C273.813 144.299 273.431 143.06 272.667 141.948C271.904 140.772 270.726 140.009 269.581 139.247V139.151ZM266.495 151.798C266.399 152.561 266.145 153.26 265.858 153.959C265.795 154.086 265.731 154.181 265.636 154.308C265.445 154.531 265.19 154.658 264.904 154.563C264.617 154.467 264.426 154.277 264.395 153.991C264.299 153.037 264.172 152.116 264.172 151.163C264.172 149.415 264.49 147.731 265.445 146.206C265.54 146.078 265.572 145.92 265.667 145.792C265.858 145.538 266.113 145.57 266.24 145.856C266.367 146.142 266.431 146.428 266.431 146.714C266.431 147.477 266.431 148.239 266.431 148.684C266.495 149.923 266.558 150.845 266.431 151.798H266.495Z" fill="#F1F138"/>
<path d="M191.054 175.724C190.927 174.516 190.545 173.372 190.068 172.26C189.336 170.608 188.222 169.273 186.95 168.066C185.995 167.176 184.85 166.763 183.513 167.239C183.322 167.303 183.1 167.366 182.877 167.398C181.159 167.875 180.3 169.209 179.918 170.766C179.695 171.752 179.918 172.419 181.19 172.546C181.604 172.578 182.05 172.641 182.463 172.546C182.877 172.419 183.227 172.61 183.45 172.959C183.672 173.309 183.609 173.69 183.322 174.008C183.131 174.198 182.972 174.421 182.813 174.611C181 176.804 180.331 179.346 180.586 182.174C180.809 184.43 181.922 186.305 183.1 188.148C183.45 188.72 184.086 189.101 184.659 189.387C185.136 189.641 185.677 189.832 186.218 189.673C186.759 189.514 187.204 189.641 187.65 189.959C188.572 190.595 190.068 190.531 190.927 189.864C191.022 189.8 191.118 189.737 191.15 189.641C191.531 188.942 192.009 188.307 191.945 187.417C191.881 185.797 191.754 184.208 191.945 182.111C192.072 181.38 191.754 180.204 191.627 179.028C191.5 177.884 191.054 176.836 190.927 175.692L191.054 175.724ZM186.281 185.097C186.281 185.097 186.027 185.066 185.963 184.907C185.55 183.954 185.104 183.032 184.85 182.047C184.69 181.38 185.168 180.871 185.359 180.299C185.422 180.14 185.645 180.172 185.74 180.363C185.804 180.522 185.804 180.744 185.836 180.903C186.027 182.111 186.218 183.286 186.44 184.494C186.44 184.589 186.44 184.653 186.472 184.716C186.472 184.907 186.472 185.066 186.25 185.097H186.281Z" fill="#F1F138"/>
<path d="M178.804 180.015C178.74 178.998 178.708 177.981 178.676 176.964C178.676 176.71 178.613 176.488 178.517 176.265C177.881 175.026 177.308 173.723 176.226 172.77C176.004 172.579 175.845 172.325 175.686 172.071C175.526 171.817 175.336 171.594 175.113 171.404C173.522 169.974 171.358 170.45 169.831 171.308C169.736 171.372 169.672 171.435 169.608 171.531C169.163 172.166 168.622 172.77 168.399 173.533C168.113 174.422 167.572 175.249 167.636 176.234C167.636 176.361 167.636 176.678 167.317 176.488V180.237C167.667 181.032 167.636 181.89 167.636 182.748C167.636 185.067 168.017 187.355 168.336 189.643C168.59 191.518 168.845 193.361 169.131 195.236C169.513 197.714 169.704 200.224 170.245 202.671C170.372 203.211 170.499 203.783 170.817 204.26C170.945 204.451 171.072 204.673 171.136 204.927C171.326 205.722 171.804 206.262 172.536 206.58H173.999C173.999 206.58 174.095 206.453 174.158 206.421C175.24 205.976 175.686 205.213 175.495 204.069C175.431 203.72 175.336 203.37 175.336 203.021C175.431 201.718 175.081 200.51 174.826 199.271C174.254 196.602 173.936 193.901 173.967 191.168C173.967 190.755 174.126 190.501 174.445 190.31C174.636 190.215 174.826 190.088 175.017 190.024C175.813 189.707 176.322 189.103 176.736 188.404C177.086 187.8 177.245 187.101 177.563 186.465C178.136 185.353 178.072 184.05 178.708 182.97C178.772 182.875 178.772 182.748 178.772 182.652C178.581 181.794 178.899 180.936 178.867 180.078L178.804 180.015ZM173.808 181.064C173.776 182.08 173.745 183.002 173.49 183.892C173.426 184.05 173.426 184.241 173.236 184.241C172.949 184.241 172.981 184.019 172.949 183.86C172.726 182.716 172.631 181.54 172.631 180.364C172.631 179.697 172.758 179.03 172.599 178.363C172.504 178.013 172.726 177.664 172.631 177.314C172.631 177.219 172.695 177.092 172.79 177.06C172.917 177.028 173.045 177.06 173.14 177.219C173.363 177.568 173.554 177.918 173.617 178.331C173.745 179.252 173.936 180.206 173.872 181.032L173.808 181.064Z" fill="#F1F138"/>
<path d="M240.881 99.9696C242.536 99.6836 243.013 98.349 242.408 97.078C242.058 96.3154 241.422 95.7752 240.595 95.5845C239.99 95.4574 239.386 95.2985 238.781 95.3303C238.081 95.2668 237.476 95.4256 236.872 95.7116C236.076 96.0929 235.758 96.7602 235.886 97.65C236.045 98.635 236.681 99.207 237.54 99.5883C237.922 99.7472 238.336 99.779 238.717 99.8425C239.449 99.9378 240.181 100.065 240.881 99.9378V99.9696Z" fill="#F1F138"/>
<path d="M257.236 101.464C257.681 103.434 258.159 105.404 258.413 107.406C258.477 107.978 258.572 108.518 259.05 108.931C259.304 109.154 259.527 109.471 259.718 109.757C259.972 110.107 260.291 110.329 260.672 110.456C261.054 110.584 261.468 110.615 261.881 110.647C263.218 110.742 264.236 109.821 264.236 108.391C264.236 108.327 264.236 108.2 264.204 108.073C263.95 106.294 263.6 104.514 263.186 102.735C262.55 99.9386 261.881 97.1741 261.659 94.3143C261.595 93.2974 261.277 92.4077 260.641 91.6451C259.591 90.3423 258.986 90.3423 257.522 90.8189C257.109 90.946 256.695 91.1367 256.504 91.5816C256.25 92.1535 255.995 92.7573 256.059 93.4563C256.281 96.1573 256.631 98.8265 257.236 101.464Z" fill="#F1F138"/>
<path d="M257.713 88.3727C258.922 88.4998 259.972 87.197 259.527 86.0848C259.209 85.2586 258.222 84.7185 257.299 84.8773C256.886 84.9409 256.472 85.1633 256.09 85.2904C255.486 85.5128 255.263 85.9259 255.295 86.4661C255.295 87.483 255.931 88.182 256.854 88.2456C257.14 88.2456 257.427 88.3409 257.745 88.3727H257.713Z" fill="#F1F138"/>
<path d="M213.167 111.599C213.39 113.124 213.772 114.618 214.122 116.111C214.663 118.367 214.981 120.687 215.617 122.911C216.19 124.977 216.731 127.042 217.558 129.012C217.749 129.425 218.004 129.711 218.385 129.966C219.181 130.506 220.04 130.379 220.867 130.156C221.79 129.902 222.267 129.076 222.044 128.154C221.726 126.693 221.408 125.263 221.026 123.833C220.358 121.481 219.944 119.098 219.976 116.652C219.976 115.571 219.976 114.491 220.74 113.601C221.09 113.22 221.408 112.838 221.854 112.552C222.331 112.266 222.681 111.885 223.031 111.44C223.604 110.709 223.985 109.851 224.304 108.994C224.526 108.422 224.431 107.786 223.954 107.341C223.508 106.865 222.999 106.483 222.235 106.642C220.994 106.928 219.976 107.468 219.276 108.58C219.054 108.93 218.735 109.248 218.417 109.565C218.099 109.883 217.908 109.851 217.622 109.502C217.494 109.375 217.399 109.184 217.272 109.057C216.731 108.326 215.999 107.977 215.076 108.072C214.249 107.977 213.549 108.263 213.231 109.057C212.944 109.788 212.563 110.551 213.072 111.377C213.104 111.44 213.104 111.536 213.135 111.599H213.167Z" fill="#F1F138"/>
<path d="M245.24 113.697C244.795 112.203 244.572 110.646 244.19 109.121C243.745 107.278 243.586 105.34 242.44 103.687C242.44 103.656 242.409 103.592 242.377 103.529C241.868 102.671 241.168 102.099 240.022 102.194C238.495 102.067 237.668 103.37 237.795 104.577C237.986 106.166 238.177 107.787 238.559 109.375C239.036 111.409 239.545 113.411 239.672 115.508C239.736 116.684 240.118 117.605 240.977 118.431C242.059 119.48 243.427 119.83 244.795 119.194C244.922 119.131 245.05 119.099 245.177 119.067C245.972 118.749 246.354 118.05 246.068 117.256C245.686 116.112 245.559 114.904 245.209 113.729L245.24 113.697Z" fill="#F1F138"/>
<path d="M308.209 69.5613C307.032 69.2435 305.823 69.0846 304.645 69.6884C304.009 70.0061 303.882 69.9426 303.754 69.2118C303.5 67.5912 303.245 65.9706 302.959 64.35C302.641 62.4752 302.482 60.5051 301.114 58.9799C301.082 58.9481 301.05 58.8846 301.05 58.8528C300.795 58.1537 300.254 57.6771 299.714 57.264C299.332 56.9462 298.854 56.7238 298.345 56.8827C297.391 57.1687 296.564 57.6135 296.214 58.6939C296.023 59.2976 296.054 59.8696 296.214 60.4416C296.5 61.4584 296.786 62.4752 296.945 63.5238C297.359 66.0024 297.741 68.4809 298.186 70.9594C298.473 72.5164 298.695 74.1053 298.886 75.6623C299.077 77.3146 299.141 78.9988 299.491 80.6511C299.682 81.5726 299.873 82.4941 299.904 83.4474C299.936 84.8138 300.064 86.1801 300.445 87.5465C300.7 88.4362 300.795 89.3577 300.891 90.2474C300.954 90.883 301.114 91.5185 301.304 92.154C301.559 92.9802 302.132 93.4886 302.927 93.711C303.436 93.8699 304.009 93.9335 304.518 93.8699C305.568 93.711 306.395 93.2662 306.777 92.154C307 91.4867 307.095 90.8512 307.032 90.311C307.032 89.5484 306.968 88.9446 306.904 88.3091C306.809 87.3241 306.459 86.4026 306.395 85.4493C306.109 82.367 305.695 79.3165 305.154 76.2978C305.059 75.7894 305.154 75.3445 305.504 74.9314C306.204 74.0417 306.968 73.1837 307.954 72.58C308.368 72.3258 308.718 71.9763 308.909 71.4996C309.259 70.6734 308.973 69.8473 308.209 69.6248V69.5613Z" fill="#F1F138"/>
<path d="M252.781 108.168C252.686 108.709 252.781 108.868 253.354 108.868C254.054 108.868 255.804 109.185 256.218 109.694C256.536 110.107 256.568 110.52 256.313 110.965C255.645 112.045 254.786 112.871 253.418 112.903C252.527 112.903 251.763 113.38 250.904 113.475C250.299 113.57 249.918 113.443 249.568 112.967C249.408 112.744 249.249 112.522 249.09 112.331C248.74 111.95 248.613 111.505 248.645 110.997C248.645 110.425 248.645 109.853 248.645 109.281C248.645 107.596 248.804 105.944 248.709 104.26C248.645 103.148 248.804 102.004 248.772 100.86C248.772 100.034 248.645 99.9703 247.786 100.034C247.118 100.097 246.449 100.097 245.749 100.097C244.954 100.097 244.254 99.303 244.222 98.5086C244.19 97.7777 244.381 97.1422 244.89 96.602C246.227 95.2356 247.468 93.7422 249.154 92.7253C249.79 92.3122 250.458 91.8992 251.158 91.6767C252.463 91.2319 253.736 91.4861 254.849 92.2805C255.327 92.63 255.518 93.1702 255.486 93.7739C255.39 95.1085 254.849 95.2992 254.245 97.9366C254.245 97.9366 253.768 100.352 253.259 103.434C253.131 104.26 252.749 108.168 252.749 108.168H252.781Z" fill="#F1F138"/>
<path d="M312.217 82.6836C312.345 83.7322 312.504 84.7173 313.363 85.4481C313.458 85.5434 313.522 85.6705 313.586 85.7659C314.127 86.4649 315.717 86.9734 316.513 86.7192C317.499 86.4014 318.104 85.5752 318.072 84.3995C318.072 84.2724 318.072 84.0182 318.008 83.7958C317.754 82.2387 317.467 80.7135 317.117 79.1882C316.481 76.3602 315.781 73.5321 315.558 70.6087C315.495 69.5601 315.24 68.6069 314.54 67.7489C313.586 66.5414 312.886 66.3508 311.358 66.9227C310.977 67.0498 310.595 67.2405 310.404 67.6218C310.086 68.2891 309.831 68.9564 309.927 69.719C310.054 70.5452 310.117 71.3714 310.213 72.1975C310.404 74.0405 310.754 75.8835 311.167 77.6948C311.517 79.3471 311.963 80.9995 312.186 82.6836H312.217Z" fill="#F1F138"/>
<path d="M311.74 64.38C312.472 64.38 312.981 64.0305 313.363 63.4585C313.713 62.9501 313.681 62.3464 313.363 61.8379C312.949 61.2342 312.408 60.8529 311.613 60.8847C310.913 60.8847 310.309 61.2024 309.704 61.5202C309.545 61.6155 309.418 61.7744 309.354 61.9333C308.94 62.9501 309.609 64.1576 310.722 64.3165C311.072 64.3482 311.422 64.38 311.772 64.38H311.74Z" fill="#F1F138"/>
<path d="M230.922 124.311C232.958 125.042 235.122 124.724 235.44 124.66C236.268 124.47 236.745 123.866 236.968 123.135C237.158 122.468 236.777 121.896 236.236 121.451C235.886 121.165 235.536 121.006 235.09 120.879C234.104 120.625 233.531 120.053 233.499 119.29C233.436 118.115 233.213 116.939 233.086 115.763C232.927 114.174 232.608 112.617 232.513 111.029C232.481 110.298 232.704 109.726 233.34 109.281C234.168 108.741 234.995 108.137 235.822 107.597C236.363 107.247 236.713 106.739 236.968 106.167C237.222 105.595 237.19 105.118 236.777 104.673C236.331 104.165 235.918 103.625 235.09 103.752C234.136 103.879 233.277 104.292 232.481 104.769C231.972 105.086 231.749 105.023 231.654 104.483C231.431 103.37 231.113 102.29 230.731 101.21C230.381 100.161 229.999 99.1443 229.427 98.1592C228.854 97.1424 228.122 96.634 226.849 96.8247C225.227 97.0471 224.781 97.8415 224.686 99.4303C224.654 100.129 224.813 100.828 225.004 101.496C225.418 103.275 225.768 105.086 226.118 106.898C226.34 108.073 226.404 109.313 226.69 110.488C226.913 111.41 227.168 112.3 227.295 113.253C227.454 114.27 227.581 115.286 227.804 116.272C228.249 118.21 228.663 120.18 229.268 122.087C229.586 123.072 230.063 124.057 230.986 124.374L230.922 124.311Z" fill="#F1F138"/>
<path d="M332.295 55.9918C332.168 55.833 332.009 55.6423 331.786 55.5787C330.8 55.3245 329.813 55.1339 328.891 55.7059C327.809 56.3731 326.663 57.0087 326.727 58.5657C326.727 58.7246 326.663 58.8834 326.663 59.0423C326.472 60.4087 326.25 61.7751 326.122 63.1414C325.932 65.334 325.741 67.4947 325.709 69.6873C325.709 69.9097 325.804 70.2275 325.486 70.3228C325.168 70.4181 325.136 70.0686 325.041 69.8779C325.009 69.8144 324.977 69.7191 324.945 69.6555C324.245 68.162 323.704 66.605 323.068 65.0798C322.686 64.1583 322.145 63.3003 321.254 62.8872C319.759 62.1882 318.263 62.2835 316.991 63.491C316.036 64.3807 315.909 65.62 316.736 66.6368C317.022 66.9863 317.277 67.3676 317.436 67.8125C317.85 68.9564 318.327 70.0686 318.836 71.1808C319.472 72.5471 320.172 73.9135 320.682 75.3116C321.604 77.8219 322.559 80.3005 324.213 82.4612C325.104 83.6369 326.25 84.0818 327.65 84.1136C328.254 84.1136 328.732 83.764 329.241 83.5416C329.877 83.2556 330.259 82.7472 330.354 82.0481C330.577 80.4593 330.8 78.9023 331.022 77.3135C331.15 76.3602 331.213 75.3752 331.404 74.4219C331.595 73.3415 331.786 72.2294 331.786 71.1172C331.786 68.8293 331.945 66.5415 332.454 64.2854C332.741 63.0143 332.772 61.648 332.963 60.3451C333.027 59.9003 332.963 59.3919 333.282 58.9788V57.1993C332.963 56.7862 332.677 56.4049 332.359 55.9918H332.295Z" fill="#F1F138"/>
<path d="M203.781 116.303C204.195 116.239 204.577 116.303 204.99 116.398C205.404 116.462 205.499 116.716 205.245 117.097C204.863 117.669 204.449 118.178 204.036 118.718C202.731 120.339 202.349 122.182 202.731 124.183C202.954 125.423 203.813 126.344 204.513 127.329C205.499 128.696 207.281 129.172 208.872 128.664C209.381 128.505 209.795 128.441 210.336 128.664C211.067 128.95 211.895 128.95 212.595 128.505C213.581 127.869 213.836 126.98 213.581 125.804C213.486 125.454 213.358 125.137 213.231 124.819C213.104 124.565 213.008 124.342 213.072 124.056C213.295 122.785 213.549 121.514 213.358 120.211C213.295 119.703 213.549 119.195 213.549 118.686C213.517 117.256 213.167 115.89 212.499 114.651C211.958 113.57 211.163 112.649 210.081 112.109C208.84 111.473 207.44 111.378 206.072 111.473C204.513 111.6 203.24 112.299 202.381 113.666C201.936 114.365 202.095 115.064 202.381 115.731C202.636 116.367 203.208 116.43 203.813 116.335L203.781 116.303ZM207.345 122.785C207.345 122.785 207.44 122.595 207.567 122.563C207.727 122.531 207.854 122.626 207.854 122.753C207.981 123.453 208.108 124.12 208.204 124.819C208.204 124.946 208.14 125.073 207.981 125.137C207.79 125.232 207.663 125.137 207.567 125.01C207.249 124.66 207.186 124.183 207.154 123.802C207.217 123.421 207.281 123.103 207.345 122.785Z" fill="#F1F138"/>
<path d="M266.24 88.8495C265.572 89.0084 265.158 89.485 264.999 90.1206C264.84 90.8196 264.681 91.5187 264.84 92.2813C265.349 94.7281 265.795 97.1748 266.304 99.5898C266.813 102.037 267.354 104.515 267.927 106.962C268.118 107.852 268.022 108.741 268.245 109.599C268.722 111.665 269.168 113.698 269.358 115.827C269.422 116.431 269.549 117.067 269.74 117.639C269.963 118.306 270.249 119.005 271.077 119.132C272.604 119.386 274.449 118.91 274.418 116.558C274.418 116.463 274.418 116.336 274.418 116.24C274.354 115.096 274.29 113.984 274.131 112.84C273.972 111.824 273.813 110.807 273.749 109.79C273.718 108.837 273.558 107.915 273.304 106.994C273.113 106.326 273.018 105.659 273.049 104.992C273.049 104.642 273.208 104.42 273.558 104.356C275.118 104.102 276.486 103.435 277.758 102.545C278.586 101.973 279.254 101.306 279.668 100.384C280.145 99.3356 280.622 98.2552 281.004 97.1748C281.258 96.3804 281.672 95.6178 281.799 94.7916C281.99 93.4888 282.181 92.186 282.245 90.8514C282.309 89.0084 281.704 87.4514 280.368 86.2121C279.986 85.8626 279.54 85.5766 279.19 85.2271C278.363 84.4644 277.44 84.0831 276.295 84.1785C275.245 84.2102 274.195 84.2738 273.177 84.5598C270.886 85.2271 269.008 86.5617 267.354 88.2458C267.068 88.5318 266.749 88.786 266.336 88.8813L266.24 88.8495ZM272.349 96.6346C272.668 96.2533 272.795 95.7767 272.763 95.2683C272.763 93.743 273.431 92.472 274.131 91.1692C274.195 91.0103 274.322 90.8832 274.513 90.915C274.736 90.915 274.799 91.1056 274.863 91.2963C274.99 91.7729 275.022 92.2496 275.022 92.7262C275.022 93.2028 275.022 93.7113 275.022 94.1879C275.022 95.1094 275.118 95.9991 275.022 96.9524C274.927 97.715 274.704 98.4141 274.449 99.1449C274.227 99.7169 273.081 100.289 272.477 100.13C272.222 100.066 272.095 99.8758 271.999 99.6216C271.681 98.573 271.554 97.5561 272.349 96.6346Z" fill="#F1F138"/>
<path d="M281.863 82.525C283.072 82.7157 284.313 82.7474 285.299 81.7942C285.458 81.6353 285.649 81.54 285.808 81.4129C286.222 81.1269 286.699 80.9362 287.208 80.7456C287.495 80.6502 287.781 80.5867 287.908 80.9044C288.035 81.1587 287.813 81.3493 287.654 81.5082C287.335 81.7942 287.017 82.0802 286.667 82.3344C286.126 82.7157 285.745 83.2241 285.426 83.7961C284.822 84.8764 284.281 85.9886 283.995 87.2279C283.835 87.9269 283.645 88.5942 283.581 89.2933C283.517 89.9606 283.263 90.6279 283.422 91.2952C283.581 91.9307 283.613 92.5662 283.708 93.2017C283.995 95.4261 285.395 96.4429 287.526 97.1102C288.513 97.3962 289.595 97.4915 290.676 97.2691C290.963 97.2055 291.313 97.2055 291.535 97.4279C292.299 98.1588 293.254 98.3495 294.272 98.5401C296.149 98.8579 297.613 97.7139 297.74 95.8391C297.804 95.0447 297.645 94.3457 297.326 93.6466C296.881 92.6933 296.467 91.6765 296.626 90.5961C296.754 89.7699 296.722 88.9438 296.754 88.0858C296.754 87.7363 296.817 87.3867 296.881 87.0372C297.008 86.4017 297.199 85.7662 297.104 85.2895C297.104 83.7961 296.817 82.4932 296.372 81.2222C296.117 80.5231 295.799 79.8241 295.799 79.0297C295.799 78.7755 295.672 78.553 295.545 78.3624C295.226 77.8857 294.908 77.4091 294.558 76.9642C292.935 74.867 290.835 74.2315 288.226 74.8035C286.826 75.1212 285.554 75.6932 284.249 76.2016C282.531 76.8689 281.354 78.1399 280.495 79.7605C279.89 80.9362 280.495 82.3026 281.831 82.4932L281.863 82.525ZM289.213 87.6409C289.213 87.6409 289.308 87.355 289.467 87.3867C289.626 87.3867 289.69 87.5456 289.722 87.6727C289.785 88.1176 289.849 88.5942 289.849 89.0391C289.849 89.897 289.913 90.755 290.072 91.6129C290.104 91.8354 290.104 92.0578 290.104 92.2485C290.104 92.4709 290.04 92.6933 289.785 92.7251C289.531 92.7251 289.435 92.5345 289.34 92.3438C289.34 92.312 289.34 92.2485 289.308 92.1849C289.149 91.2634 289.181 90.3101 288.926 89.4522C289.054 88.7849 289.117 88.2129 289.245 87.6409H289.213Z" fill="#F1F138"/>
<path d="M201.268 116.525C200.79 115.509 199.709 115.286 198.913 114.651C198.818 114.555 198.595 114.587 198.436 114.587C197.513 114.587 196.686 114.778 195.859 115.191C193.918 116.144 193.027 117.892 192.39 119.767C192.04 120.847 191.913 122.023 191.977 122.658C192.072 125.137 192.231 127.043 192.486 128.95C192.709 130.634 192.963 132.286 193.663 133.875C194.013 134.638 194.427 135.114 195.19 135.4C195.572 135.559 195.859 135.496 196.145 135.21C197.068 134.193 197.481 133.081 197.036 131.714C196.909 131.333 196.781 130.952 196.781 130.539C196.749 129.458 196.781 128.378 196.622 127.298C196.559 126.853 196.686 126.44 197.068 126.154C197.545 125.74 197.895 125.232 198.245 124.724C199.104 123.421 199.804 121.991 200.949 120.879C201.713 120.148 201.84 119.195 201.999 118.241C202.095 117.542 201.586 117.097 201.331 116.557L201.268 116.525ZM197.29 117.892C197.545 118.813 197.831 119.703 197.895 120.561C197.99 121.578 198.086 122.499 197.927 123.421C197.927 123.58 197.927 123.77 197.704 123.802C197.418 123.866 197.418 123.611 197.354 123.453C197.004 122.34 196.718 121.197 196.59 120.021C196.495 119.385 196.59 118.686 196.304 118.051C196.145 117.701 196.336 117.352 196.209 117.002C196.177 116.907 196.209 116.78 196.336 116.748C196.463 116.684 196.59 116.748 196.686 116.875C196.94 117.193 197.195 117.542 197.29 117.924V117.892Z" fill="#F1F138"/>
<path d="M65.9768 82.0162C64.4178 66.3506 57.0678 44.5523 51.0859 39.9766C51.4041 42.6457 51.4359 44.5841 51.8814 46.3953C54.3632 56.6589 55.4768 68.7974 57.9905 79.061C58.7541 82.1751 59.1996 85.3844 60.1541 88.4349C61.8723 94.0275 66.3268 93.2649 71.4178 90.5321C76.095 88.0218 80.7723 85.5751 85.3541 82.9377C86.9768 81.9844 88.3768 80.618 91.145 78.4573C80.995 75.661 74.2178 84.5265 65.9768 82.0162Z" fill="#F1F138"/>
<path d="M95.0898 59.1072C98.3353 58.1539 100.753 56.8511 102.694 55.0081C102.949 54.7857 103.235 54.595 103.553 54.4043L107.626 58.0268L108.453 57.0735C108.676 56.8193 108.867 56.5969 109.026 56.4062C110.84 54.595 111.222 52.5296 110.14 50.2735C109.917 49.7968 109.694 49.3202 109.472 48.8118C109.122 48.0174 108.74 47.223 108.358 46.4603C108.072 45.8884 107.753 45.3482 107.435 44.808C106.926 43.9183 106.417 43.0921 106.067 42.2024C103.808 36.4509 95.4398 31.2397 88.058 33.178C82.4898 34.6397 77.908 37.8173 73.7398 41.0902C73.1671 41.5351 72.8807 42.0117 72.9125 42.5519C72.9125 43.1239 73.2625 43.6641 73.9625 44.2043C75.458 45.3164 77.5262 45.8248 79.4989 45.4435C81.3125 45.1258 82.8398 44.1725 83.8262 42.7426C85.8307 39.8192 90.1898 38.8023 93.1489 40.55C95.2171 41.7893 96.9035 43.6005 98.2398 46.1108C92.258 49.1295 89.458 51.481 86.9125 55.6436L86.7216 55.9296L86.8807 56.2156C88.4398 58.9165 91.7171 60.0287 95.058 59.0436L95.0898 59.1072ZM99.3853 50.7819C98.908 53.8006 96.5853 55.2623 92.3535 55.167C93.7216 52.5613 96.3944 50.909 99.3853 50.7819Z" fill="#F1F138"/>
<path d="M220.359 80.4917C219.245 72.3253 213.295 77.5683 206.454 77.6636C199.613 77.759 198.404 73.5963 198.404 73.5963C198.404 73.5963 201.554 66.0018 205.34 64.6037C211.29 62.3476 218.068 56.1195 213.899 51.7344C209.699 47.3494 202.413 52.0522 201.172 58.7252C199.963 65.1757 191.531 67.114 188.381 66.7009C185.231 66.2878 185.613 59.9962 186.918 55.1662C188.222 50.3363 195.731 40.7082 187.395 38.8652C180.013 37.2446 178.836 44.7437 180.427 51.6073C182.018 58.4392 178.454 66.0654 178.454 66.0654C178.454 66.0654 172.154 62.8878 170.022 58.5345C164.327 46.9363 153.604 50.7812 154.304 59.7102C155.004 68.6393 161.113 64.3495 169.959 71.5309C176.959 77.187 178.199 92.3124 178.422 98.5087C178.422 98.5087 177.436 117.384 169.831 136.354C169.959 133.494 169.831 130.602 169.418 127.679C168.049 113.825 159.045 94.7591 152.331 81.0319C150.327 76.5197 147.368 73.501 142.818 71.6262C138.554 69.8467 134.799 67.5907 132.604 62.8878C130.568 58.5345 127.195 58.0261 123.663 61.4579C120.959 64.0635 118.763 67.5589 117.331 71.0542C113.386 80.6506 108.295 89.4525 99.4494 95.1404C84.3994 104.8 68.2676 110.107 50.1631 105.15C46.9176 104.26 43.5767 103.307 40.1085 105.626C41.9221 108.232 43.2267 110.647 45.0721 112.617C46.5676 114.206 48.5403 115.858 50.5767 116.43C59.1994 118.75 67.8858 119.29 76.5085 116.208C79.5631 115.128 82.7131 114.301 85.8312 113.507C105.813 108.359 119.463 96.2208 126.972 76.1702C130.568 78.7122 133.718 81.5403 137.377 83.3198C141.259 85.1945 143.486 87.9273 144.79 91.8039C147.368 99.4302 150.04 107.025 152.713 114.619C156.054 124.088 156.945 133.494 155.163 143.662C153.19 154.816 150.677 165.651 146.636 176.201C143.868 183.414 140.336 190.119 134.99 195.68C123.663 207.405 110.204 212.14 94.0403 207.723C78.2903 203.401 66.0722 193.582 55.2221 182.048C40.7131 166.668 31.3267 148.143 24.3267 128.378C17.5494 109.217 16.0222 89.4525 20.1903 69.6879C24.7403 48.1438 35.7812 30.667 56.5903 21.166C72.4994 13.921 87.8676 16.1453 102.249 25.7417C105.049 27.6165 107.34 27.68 109.631 25.4239C111.827 23.2949 111.572 20.9117 110.14 18.4968C109.918 18.1155 109.568 17.7977 109.281 17.4164C101.04 7.12097 89.2676 3.59384 77.4631 0.193812C76.8267 0.00315604 76.0949 0.162036 75.3949 0.193812C59.1994 1.14709 44.3722 6.23125 32.1221 16.7491C14.9721 31.4614 4.63124 50.3045 1.83124 72.7701C-1.15967 96.8245 1.7676 119.989 11.9812 142.423C26.6176 174.644 49.0176 198.857 81.3449 213.824C114.34 229.076 149.404 209.47 159.427 179.41C159.427 179.41 183.513 133.971 184.404 107.628C185.009 84.9403 198.436 79.6973 205.563 83.8917C212.69 88.0862 221.504 88.7217 220.39 80.5552L220.359 80.4917Z" fill="#F1F138"/>
</svg>
