<svg width="31" height="31" viewBox="0 0 31 31" fill="none" xmlns="http://www.w3.org/2000/svg">
<g clip-path="url(#clip0_580_11381)">
<path d="M15.31 29.61C23.21 29.61 29.62 23.2 29.62 15.3C29.62 7.4 23.21 1 15.31 1C7.41 1 1 7.41 1 15.31C1 23.21 7.41 29.62 15.31 29.62V29.61Z" stroke="black" stroke-width="2"/>
<path d="M9.91986 10.6293V19.8203H7.80593V13.1109L5.58696 14.332V12.31L8.22609 10.6293H9.91986ZM14.8899 19.9779C12.9072 19.9779 11.4498 18.9669 11.2266 17.0105H13.3143C13.3931 17.8246 13.9445 18.3891 14.903 18.3891C15.8615 18.3891 16.4523 17.8771 16.4523 17.1418C16.4523 16.2883 15.7827 15.8551 14.7848 15.8551C14.4435 15.8551 14.1152 15.8682 13.7476 15.8813V14.3057C14.0627 14.3057 14.4435 14.3188 14.798 14.3188C15.6514 14.3188 16.3473 13.9512 16.3473 13.1503C16.3473 12.4938 15.7827 12.0342 14.9424 12.0342C14.0496 12.0342 13.5244 12.52 13.4324 13.2291H11.3842C11.6336 11.4302 13.0254 10.4455 14.9687 10.4455C16.8725 10.4455 18.4218 11.3777 18.4218 13.019C18.4218 14.135 17.6997 14.7915 16.7806 15.041V15.0673C17.8179 15.2905 18.5663 16.052 18.5663 17.2731C18.5663 18.9669 16.9775 19.9779 14.8899 19.9779ZM26.4046 16.0914H23.923V18.6649H22.2292V16.0914H19.7345V14.4895H22.2292V11.9686H23.923V14.4895H26.4046V16.0914Z" fill="black"/>
</g>
<defs>
<clipPath id="clip0_580_11381">
<rect width="30.61" height="30.61" fill="white"/>
</clipPath>
</defs>
</svg>
