<svg width="31" height="31" viewBox="0 0 31 31" fill="none" xmlns="http://www.w3.org/2000/svg">
<g clip-path="url(#clip0_580_11884)">
<path d="M15.31 29.9557C23.21 29.9557 29.62 23.5457 29.62 15.6457C29.62 7.7457 23.21 1.3457 15.31 1.3457C7.41 1.3457 1 7.7557 1 15.6557C1 23.5557 7.41 29.9657 15.31 29.9657V29.9557Z" stroke="black" stroke-width="2"/>
<path d="M14.7467 15.1766C14.7467 18.9974 13.1317 20.3236 10.9521 20.3236C9.16645 20.3236 7.7878 19.4307 7.55146 17.737H9.626C9.74417 18.3541 10.2169 18.7348 11.0047 18.7348C11.9369 18.7348 12.6328 18.0915 12.7116 16.0038C12.2783 16.5421 11.5167 16.9229 10.6239 16.9229C8.98263 16.9229 7.47268 15.8725 7.47268 13.9293C7.47268 12.0779 8.99576 10.7912 11.044 10.7912C13.1974 10.7912 14.7467 12.1173 14.7467 15.1766ZM11.044 15.3473C11.8187 15.3473 12.4883 14.7696 12.4883 13.8636C12.4883 13.0233 11.8581 12.3668 11.044 12.3668C10.2037 12.3668 9.57348 12.9708 9.57348 13.8636C9.57348 14.7958 10.2694 15.3473 11.044 15.3473ZM22.5957 16.4371H20.1141V19.0106H18.4203V16.4371H15.9256V14.8352H18.4203V12.3143H20.1141V14.8352H22.5957V16.4371Z" fill="black"/>
</g>
<defs>
<clipPath id="clip0_580_11884">
<rect width="30.61" height="30.61" fill="white" transform="translate(0 0.345703)"/>
</clipPath>
</defs>
</svg>
