<?xml version="1.0" encoding="UTF-8"?>
<svg id="Layer_2" data-name="Layer 2" xmlns="http://www.w3.org/2000/svg" viewBox="0 0 35.63 27.18">
  <defs>
    <style>
      .cls-1 {
        fill: none;
        stroke: #010101;
        stroke-width: 2px;
      }
    </style>
  </defs>
  <g id="Layer_1-2" data-name="Layer 1">
    <path class="cls-1" d="m32.72,13.57c-.84-.29-1.69-.18-2.38.22-.26.15-.55.21-.84.15h0c-.63-.13-1.03-.75-.89-1.37l.52-2.47.98-4.66-7.42-1.56c-.63-.13-1.24.27-1.37.89l-.02.12c-.06.29,0,.59.15.84.4.69.51,1.54.22,2.38-.42,1.22-1.67,2.02-2.96,1.89-1.73-.17-2.88-1.79-2.53-3.44.15-.72.56-1.31,1.11-1.72.24-.17.41-.42.47-.71l.02-.12c.13-.63-.27-1.24-.89-1.37l-6.82-1.44-1.02,7.44c-.09.67-.73,1.11-1.39.97l-.78-.16c-.29-.06-.54-.24-.71-.48-.47-.64-1.2-1.09-2.08-1.16-1.29-.11-2.52.71-2.93,1.94-.55,1.65.47,3.36,2.12,3.71.72.15,1.43.02,2.02-.32.26-.15.55-.21.84-.15l.25.05c.63.13,1.03.75.89,1.37l-1.56,7.41,6.82,1.44c.63.13,1.24-.27,1.37-.89l.04-.17c.06-.29,0-.59-.15-.84-.4-.69-.51-1.54-.22-2.38.42-1.22,1.67-2.02,2.96-1.89,1.73.17,2.88,1.79,2.53,3.44-.15.72-.56,1.31-1.11,1.72-.24.17-.41.42-.47.71l-.15.73c-.14.66.31,1.3.98,1.39l7.45.99,1.02-7.72c.09-.67.73-1.12,1.39-.98l.59.12c.29.06.54.23.71.47.4.55,1,.96,1.72,1.11,1.65.35,3.27-.8,3.44-2.53.12-1.29-.67-2.53-1.89-2.96Z"/>
  </g>
</svg>