<svg width="44" height="21" viewBox="0 0 44 21" fill="none" xmlns="http://www.w3.org/2000/svg">
<g clip-path="url(#clip0_773_14245)">
<path d="M8.10001 2.73L2.13001 9.34C1.41001 10.14 1.01001 11.17 1.01001 12.25V17.09H3.54001C3.86001 14.73 5.86001 12.9 8.31001 12.9C10.76 12.9 12.76 14.73 13.08 17.09H29.74C30.06 14.73 32.06 12.9 34.51 12.9C36.96 12.9 38.96 14.73 39.28 17.09H42.24V5.01C42.24 3.13 40.72 1.61 38.84 1.61H10.63C9.67001 1.61 8.75001 2.02 8.10001 2.73Z" stroke="black" stroke-width="2"/>
<path d="M10.63 4.15999C10.39 4.15999 10.16 4.25999 10 4.43999L7.81 6.85999C7.25 7.47999 7.69 8.45999 8.52 8.45999H15.3C15.83 8.45999 16.26 8.02999 16.26 7.49999V5.10999C16.26 4.57999 15.83 4.14999 15.3 4.14999H10.63V4.15999Z" stroke="black" stroke-width="2"/>
<path d="M39.68 5.01C39.68 4.54 39.3 4.16 38.83 4.16H21.3C20.72 4.16 20.26 4.63 20.26 5.2V7.42C20.26 8 20.73 8.46 21.3 8.46H38.64C39.22 8.46 39.68 7.99 39.68 7.42V5.01Z" stroke="black" stroke-width="2"/>
<path d="M8.31002 19.89C9.50296 19.89 10.47 18.9229 10.47 17.73C10.47 16.5371 9.50296 15.57 8.31002 15.57C7.11709 15.57 6.15002 16.5371 6.15002 17.73C6.15002 18.9229 7.11709 19.89 8.31002 19.89Z" stroke="black" stroke-width="2"/>
<path d="M34.51 19.89C33.32 19.89 32.35 18.92 32.35 17.73C32.35 16.54 33.32 15.57 34.51 15.57C35.7 15.57 36.67 16.54 36.67 17.73C36.67 18.92 35.7 19.89 34.51 19.89Z" stroke="black" stroke-width="2"/>
</g>
<defs>
<clipPath id="clip0_773_14245">
<rect width="43.23" height="20.28" fill="white" transform="translate(0.0100098 0.610001)"/>
</clipPath>
</defs>
</svg>
