<?xml version="1.0" encoding="UTF-8"?>
<svg id="Layer_2" data-name="Layer 2" xmlns="http://www.w3.org/2000/svg" viewBox="0 0 65.9 25.51">
  <defs>
    <style>
      .cls-1 {
        fill: #231f20;
      }

      .cls-1, .cls-2 {
        stroke-width: 0px;
      }

      .cls-2 {
        fill: #fff;
      }
    </style>
  </defs>
  <g id="Layer_1-2" data-name="Layer 1">
    <g>
      <polygon class="cls-1" points="0 0 0 17.46 0 18.61 0 25.51 2.1 25.51 2.1 18.61 65.9 18.61 61.2 9.31 65.9 0 0 0"/>
      <g>
        <path class="cls-2" d="m5.41,5.96h2.68c1.66,0,2.53.86,2.53,2.19s-.91,2.21-2.54,2.21h-1.51v2.6h-1.16v-7Zm2.6,3.41c.94,0,1.43-.47,1.43-1.21s-.5-1.21-1.43-1.21h-1.44v2.42h1.44Z"/>
        <path class="cls-2" d="m12.82,10.16v2.8h-1.14v-7h3.05c1.61,0,2.36.91,2.36,2.08s-.68,1.77-1.48,1.98v.02c.1.16.16.26.27.46l1.39,2.46h-1.33l-1.46-2.63c-.08-.14-.1-.17-.29-.17h-1.37Zm0-.98h1.8c.87,0,1.3-.45,1.3-1.11s-.44-1.12-1.3-1.12h-1.8v2.23Z"/>
        <path class="cls-2" d="m23.38,12.96h-4.98v-7h4.91v.99h-3.76v1.87h3.49v.99h-3.49v2.16h3.83v.99Z"/>
        <path class="cls-2" d="m25.78,6.81v6.15h-1.11v-7h1.92l1.9,5.69,1.9-5.69h1.86v7h-1.11v-6.18l-2.09,6.18h-1.18l-2.09-6.15Z"/>
        <path class="cls-2" d="m33.85,5.96h1.16v7h-1.16v-7Z"/>
        <path class="cls-2" d="m41.58,12.96h-4.98v-7h4.91v.99h-3.76v1.87h3.49v.99h-3.49v2.16h3.83v.99Z"/>
        <path class="cls-2" d="m44,10.16v2.8h-1.14v-7h3.05c1.61,0,2.36.91,2.36,2.08s-.68,1.77-1.48,1.98v.02c.1.16.16.26.27.46l1.39,2.46h-1.33l-1.46-2.63c-.08-.14-.1-.17-.29-.17h-1.37Zm0-.98h1.8c.87,0,1.3-.45,1.3-1.11s-.44-1.12-1.3-1.12h-1.8v2.23Z"/>
        <path class="cls-2" d="m54.57,12.96h-4.98v-7h4.91v.99h-3.76v1.87h3.49v.99h-3.49v2.16h3.83v.99Z"/>
      </g>
    </g>
  </g>
</svg>