<svg width="30" height="30" viewBox="0 0 30 30" fill="none" xmlns="http://www.w3.org/2000/svg">
<g id="Schoolproject">
<path id="Vector" d="M15.3461 22.9491C12.9903 22.9491 10.2197 22.2527 8.17906 20.3625L10.6013 17.4277C12.0944 18.8868 13.7534 19.5003 15.4125 19.5003C17.0715 19.5003 18.349 19.0526 18.349 17.9749C18.349 17.1127 17.7351 16.6981 15.6447 16.3499L14.1516 16.1012C10.8999 15.554 8.99199 14.1944 8.99199 11.4751C8.99199 7.94342 12.4262 6.11952 15.6281 6.11952C17.8844 6.11952 20.1573 6.73301 21.9657 8.19213L19.7426 11.2264C18.4319 10.1155 17.0881 9.53518 15.5618 9.53518C14.0355 9.53518 12.8244 10.016 12.8244 11.0606C12.8244 11.8897 13.4382 12.1715 15.5618 12.5197L17.0881 12.7685C20.4062 13.3156 22.3141 14.9406 22.3141 17.6101C22.3141 21.2745 18.9296 22.9326 15.3627 22.9326M15.2466 0.150391C7.21682 0.166972 0.72998 6.66669 0.72998 14.6587C0.72998 22.6507 7.21682 29.1504 15.23 29.1504C23.2431 29.1504 29.73 22.6673 29.73 14.6587C29.73 6.6501 23.2431 0.166972 15.23 0.166972" fill="black"/>
</g>
</svg>
