<svg width="794" height="448" viewBox="0 0 794 448" fill="none" xmlns="http://www.w3.org/2000/svg">
<path d="M314.157 424.355L323.941 419.019C328.735 416.403 332.883 417.659 334.773 421.117C335.799 423.006 335.868 425.3 334.462 427.374C337.112 427.201 339.486 428.446 340.915 431.05C343.231 435.291 341.595 439.439 336.536 442.193L326.787 447.505L314.169 424.343L314.157 424.355ZM320.691 425.864L323.595 431.177L328.746 428.365C330.866 427.213 331.293 425.495 330.44 423.928C329.622 422.43 327.974 421.889 325.819 423.064L320.703 425.853L320.691 425.864ZM325.727 435.095L329.057 441.191L333.978 438.506C336.259 437.261 337.297 435.429 336.179 433.378C335.073 431.349 332.941 431.165 330.659 432.41L325.738 435.095H325.727Z" fill="#F46973"/>
<path d="M336.398 414.1C335.649 412.729 336.19 411 337.562 410.251C338.968 409.491 340.673 409.986 341.422 411.358C342.183 412.763 341.687 414.469 340.281 415.241C338.91 415.99 337.17 415.494 336.398 414.1ZM339.647 419.136L343.888 416.82L352.865 433.298L348.624 435.615L339.647 419.136Z" fill="#F46973"/>
<path d="M368.79 414.376L369.251 415.229L356.852 421.982C358.534 424.367 361.104 424.655 363.351 423.434C365.183 422.443 366.186 420.495 366.324 418.559L370.599 419.02C370.392 422.224 368.617 425.174 365.195 427.04C360.666 429.506 354.927 428.619 351.874 423.007C349.223 418.144 350.836 412.486 355.665 409.859C360.493 407.231 365.783 408.868 368.79 414.376ZM355.204 418.951L363.063 414.664C361.865 412.866 359.756 412.233 357.566 413.431C355.515 414.549 354.305 416.6 355.204 418.951Z" fill="#F46973"/>
<path d="M363.605 396.562L367.846 394.246L380.821 418.054L376.581 420.37L363.605 396.562Z" fill="#F46973"/>
<path d="M380.568 385.913L385.327 383.32L388.45 414.745L383.691 417.338L380.568 385.913Z" fill="#F46973"/>
<path d="M388.553 383.806L398.337 378.47C403.131 375.855 407.279 377.111 409.169 380.568C410.195 382.458 410.264 384.751 408.858 386.825C411.508 386.652 413.882 387.897 415.311 390.501C417.627 394.742 415.991 398.89 410.932 401.644L401.183 406.957L388.565 383.794L388.553 383.806ZM395.087 385.315L397.991 390.628L403.142 387.816C405.262 386.664 405.677 384.947 404.825 383.379C404.006 381.881 402.358 381.34 400.204 382.515L395.087 385.304V385.315ZM400.123 394.546L403.453 400.642L408.374 397.957C410.655 396.712 411.693 394.88 410.575 392.829C409.469 390.812 407.337 390.616 405.055 391.861L400.134 394.546H400.123Z" fill="#F46973"/>
<path d="M410.794 373.547C410.045 372.176 410.586 370.448 411.958 369.699C413.364 368.938 415.069 369.433 415.818 370.805C416.579 372.211 416.083 373.916 414.677 374.688C413.306 375.437 411.566 374.953 410.794 373.547ZM414.043 378.583L418.284 376.267L427.261 392.746L423.02 395.062L414.043 378.595V378.583Z" fill="#F46973"/>
<path d="M443.187 373.827L443.648 374.668L431.248 381.421C432.931 383.806 435.5 384.095 437.748 382.873C439.58 381.882 440.582 379.934 440.721 377.999L444.996 378.459C444.788 381.663 443.014 384.613 439.591 386.48C435.063 388.957 429.324 388.059 426.27 382.447C423.62 377.584 425.233 371.926 430.061 369.298C434.89 366.671 440.179 368.307 443.187 373.815V373.827ZM429.6 378.402L437.459 374.115C436.261 372.317 434.152 371.695 431.963 372.882C429.912 374 428.702 376.051 429.6 378.402Z" fill="#F46973"/>
<path d="M455.217 377.513L450.976 379.829L442 363.362L446.148 361.103L447.404 363.258C447.519 361.207 448.741 359.19 450.953 357.981C454.376 356.114 457.729 356.989 459.953 361.069L465.784 371.763L461.543 374.079L456.312 364.491C455.033 362.141 453.396 361.553 451.472 362.601C449.617 363.616 448.833 365.817 450.216 368.363L455.217 377.524V377.513Z" fill="#F46973"/>
<path d="M474.462 367.015L470.221 369.331L461.244 352.852L465.381 350.594L466.637 352.749C466.752 350.697 467.974 348.681 470.186 347.471C473.609 345.604 476.962 346.48 479.186 350.559L485.017 361.253L480.777 363.569L475.545 353.982C474.266 351.631 472.629 351.043 470.705 352.092C468.85 353.106 468.055 355.307 469.449 357.853L474.45 367.015H474.462Z" fill="#F46973"/>
<path d="M500.689 342.481L501.15 343.323L488.751 350.075C490.433 352.461 493.003 352.749 495.25 351.527C497.071 350.536 498.085 348.589 498.223 346.653L502.498 347.114C502.291 350.317 500.528 353.267 497.094 355.134C492.565 357.6 486.826 356.713 483.773 351.101C481.122 346.238 482.735 340.58 487.564 337.953C492.392 335.325 497.681 336.962 500.689 342.47V342.481ZM487.103 347.056L494.962 342.769C493.763 340.972 491.655 340.349 489.465 341.536C487.414 342.654 486.204 344.705 487.103 347.056Z" fill="#F46973"/>
<path d="M297.724 397.403C293.968 390.523 296.895 382.376 303.325 378.873C307.566 376.557 312.567 376.419 316.542 378.816L314.122 383.609C311.276 381.731 308.464 381.696 305.664 383.229C301.493 385.511 299.925 390.166 302.449 394.799C305.042 399.558 310.032 400.86 314.076 398.659C317.015 397.057 318.225 394.787 318.317 391.146L323.583 391.653C323.238 396.366 320.852 400.549 316.381 402.98C309.951 406.484 301.573 404.455 297.736 397.403H297.724Z" fill="#F46973"/>
<path d="M340.834 378.85L341.295 379.692L328.896 386.445C330.578 388.83 333.148 389.118 335.395 387.896C337.227 386.905 338.23 384.958 338.368 383.022L342.643 383.483C342.436 386.686 340.661 389.637 337.239 391.503C332.71 393.981 326.971 393.082 323.918 387.47C321.267 382.607 322.88 376.949 327.709 374.322C332.537 371.694 337.826 373.331 340.834 378.839V378.85ZM327.248 383.425L335.107 379.139C333.908 377.341 331.8 376.707 329.61 377.906C327.559 379.023 326.349 381.075 327.248 383.425Z" fill="#F46973"/>
<path d="M352.865 382.526L348.624 384.843L339.647 368.364L343.784 366.105L345.041 368.26C345.156 366.209 346.377 364.192 348.59 362.982C352.012 361.116 355.366 361.991 357.59 366.071L363.421 376.776L359.18 379.092L353.948 369.505C352.669 367.154 351.033 366.566 349.108 367.615C347.253 368.629 346.458 370.83 347.852 373.377L352.854 382.538L352.865 382.526Z" fill="#F46973"/>
<path d="M376.385 369.709L373.123 371.484C369.897 373.247 367.73 372.694 365.403 368.419L361.404 361.078L359.122 362.323L357.198 358.796L359.48 357.552L357.117 353.219L361.323 350.926L363.686 355.259L367.408 353.23L369.332 356.757L365.61 358.785L369.793 366.448C370.415 367.589 370.945 368.107 372.317 367.358L374.472 366.183L376.396 369.709H376.385Z" fill="#F46973"/>
<path d="M384.117 365.493L379.876 367.809L370.899 351.33L375.048 349.072L376.477 351.549C376.65 349.383 377.814 347.389 380.13 346.133C380.418 345.972 380.741 345.845 380.879 345.811L383.16 349.982L382.054 350.581C379.611 351.918 378.044 354.326 379.796 357.53L384.128 365.493H384.117Z" fill="#F46973"/>
<path d="M403.465 344.716L403.926 345.557L391.527 352.31C393.209 354.695 395.779 354.983 398.026 353.762C399.858 352.771 400.861 350.823 400.999 348.887L405.274 349.348C405.067 352.552 403.292 355.502 399.87 357.369C395.341 359.835 389.602 358.947 386.548 353.335C383.898 348.472 385.511 342.814 390.34 340.187C395.168 337.56 400.457 339.196 403.465 344.704V344.716ZM389.879 349.291L397.738 345.004C396.539 343.206 394.431 342.572 392.241 343.771C390.19 344.889 388.98 346.94 389.879 349.291Z" fill="#F46973"/>
<path d="M428.575 341.27L425.313 343.044C422.087 344.807 419.92 344.254 417.593 339.979L413.594 332.639L411.312 333.883L409.388 330.357L411.669 329.112L409.307 324.78L413.513 322.486L415.876 326.819L419.598 324.791L421.522 328.317L417.8 330.345L421.983 338.009C422.605 339.149 423.135 339.668 424.507 338.919L426.662 337.744L428.586 341.27H428.575Z" fill="#F46973"/>
<path d="M436.307 337.054L432.066 339.37L419.091 315.562L423.332 313.246L428.494 322.707C428.621 320.69 429.865 318.697 432.055 317.51C435.477 315.643 438.831 316.519 441.055 320.598L446.886 331.304L442.645 333.62L437.413 324.032C436.134 321.681 434.498 321.094 432.573 322.142C430.718 323.156 429.923 325.357 431.317 327.904L436.319 337.065L436.307 337.054Z" fill="#F46973"/>
<path d="M462.524 312.519L462.985 313.361L450.585 320.113C452.268 322.499 454.837 322.787 457.084 321.565C458.917 320.574 459.919 318.627 460.058 316.691L464.333 317.152C464.125 320.355 462.351 323.305 458.928 325.172C454.399 327.638 448.661 326.751 445.607 321.139C442.957 316.276 444.57 310.618 449.398 307.991C454.227 305.363 459.516 307 462.524 312.508V312.519ZM446.287 301.526L451.738 298.553L450.009 305.548L446.448 307.484L446.287 301.526ZM448.937 317.094L456.796 312.807C455.598 311.01 453.489 310.376 451.3 311.574C449.248 312.692 448.038 314.755 448.937 317.094Z" fill="#F46973"/>
<path d="M462.926 292.205L466.349 290.338L473.159 292.977L469.149 295.166L466.118 293.945L465.473 297.171L461.463 299.361L462.938 292.205H462.926ZM479.52 311.633C479.105 313.212 478.022 314.779 475.741 316.024C472.41 317.833 468.527 317.372 466.729 314.088C464.955 310.827 466.614 308.441 470.451 305.457L471.523 304.616C472.802 303.625 473.528 303.014 474.024 302.53L473.828 302.173C472.871 300.409 471.558 300.191 469.575 301.274C467.686 302.299 467.086 303.855 467.962 305.537L463.917 307.738C461.912 304.224 463.814 300.098 467.985 297.817C472.295 295.466 475.775 295.731 478.091 300.052L481.548 306.459C482.355 307.923 482.735 308.015 483.945 307.358L485.513 310.228C485.144 310.642 484.66 310.988 483.911 311.403C482.378 312.244 481.007 312.601 479.543 311.622L479.52 311.633ZM474.899 312.083C476.662 311.126 477.746 309.386 476.628 307.335L475.741 305.71C475.049 306.298 474.127 307.093 472.698 308.211C470.924 309.605 470.59 310.631 471.143 311.645C471.8 312.855 473.205 313.016 474.899 312.094V312.083Z" fill="#F46973"/>
<path d="M497.555 303.67L494.293 305.445C491.067 307.208 488.9 306.655 486.573 302.379L482.574 295.039L480.292 296.284L478.368 292.757L480.649 291.513L478.287 287.18L482.493 284.887L484.856 289.22L488.578 287.191L490.502 290.718L486.78 292.746L490.963 300.409C491.585 301.55 492.115 302.068 493.487 301.319L495.642 300.144L497.566 303.67H497.555Z" fill="#F46973"/>
<path d="M505.287 299.452L501.047 301.768L492.07 285.289L496.218 283.031L497.647 285.508C497.82 283.342 498.984 281.348 501.3 280.092C501.6 279.931 501.911 279.804 502.049 279.77L504.319 283.941L503.213 284.54C500.77 285.877 499.203 288.285 500.954 291.489L505.287 299.452Z" fill="#F46973"/>
<path d="M524.624 278.677L525.085 279.518L512.685 286.271C514.368 288.656 516.937 288.944 519.185 287.723C521.017 286.732 522.019 284.784 522.158 282.848L526.433 283.309C526.225 286.513 524.451 289.463 521.028 291.33C516.5 293.796 510.761 292.908 507.707 287.296C505.057 282.433 506.67 276.775 511.498 274.148C516.327 271.52 521.616 273.157 524.624 278.665V278.677ZM511.037 283.251L518.896 278.965C517.698 277.167 515.589 276.533 513.4 277.732C511.349 278.849 510.139 280.901 511.037 283.251Z" fill="#F46973"/>
<path d="M528.991 258.348C528.242 256.977 528.784 255.248 530.155 254.499C531.561 253.739 533.266 254.234 534.015 255.606C534.776 257.011 534.28 258.717 532.875 259.489C531.503 260.238 529.763 259.754 528.991 258.348ZM539.789 283.735C540.215 283.585 540.595 283.424 540.918 283.251C541.898 282.721 542.347 281.925 541.609 280.554L532.252 263.396L536.493 261.079L546 278.526C547.97 282.144 547.417 284.61 543.764 286.604C543.05 286.996 542.405 287.295 541.851 287.514L539.789 283.735Z" fill="#F46973"/>
<path d="M561.384 258.636L561.845 259.477L549.446 266.23C551.128 268.615 553.698 268.903 555.945 267.682C557.777 266.691 558.78 264.743 558.918 262.807L563.193 263.268C562.986 266.472 561.211 269.422 557.789 271.288C553.26 273.755 547.521 272.867 544.467 267.255C541.817 262.392 543.43 256.734 548.259 254.107C553.087 251.479 558.376 253.116 561.384 258.624V258.636ZM547.798 263.21L555.657 258.924C554.458 257.126 552.349 256.492 550.16 257.691C548.109 258.808 546.899 260.871 547.798 263.21Z" fill="#F46973"/>
<path d="M578.393 256.93C578.185 258.947 577.022 260.848 574.867 262.023C571.536 263.833 567.895 262.899 565.798 259.05L559.932 248.287L564.207 245.96L569.508 255.686C570.661 257.806 572.378 258.474 574.337 257.414C576.157 256.423 576.883 254.326 575.558 251.883L570.476 242.549L574.717 240.232L583.694 256.711L579.58 258.947L578.393 256.93Z" fill="#F46973"/>
<path d="M592.636 251.837L588.395 254.153L579.418 237.686L583.567 235.428L584.823 237.583C584.938 235.531 586.16 233.515 588.372 232.305C591.795 230.438 595.148 231.314 597.372 235.393L603.203 246.098L598.962 248.415L593.731 238.827C592.452 236.476 590.815 235.889 588.891 236.937C587.036 237.951 586.24 240.152 587.635 242.699L592.636 251.86V251.837Z" fill="#F46973"/>
<path d="M618.852 227.304L619.313 228.157L606.914 234.909C608.596 237.295 611.166 237.583 613.413 236.361C615.245 235.37 616.248 233.423 616.386 231.487L620.661 231.948C620.454 235.151 618.679 238.101 615.257 239.968C610.728 242.434 604.989 241.547 601.936 235.935C599.285 231.072 600.899 225.414 605.727 222.787C610.555 220.159 615.845 221.796 618.852 227.304ZM605.266 231.879L613.125 227.592C611.927 225.794 609.818 225.16 607.628 226.359C605.577 227.477 604.367 229.539 605.266 231.879Z" fill="#F46973"/>
<path d="M638.73 224.422L643.063 232.385L638.822 234.701L626.469 212.034L630.71 209.718L631.954 212C632.035 209.891 633.222 207.886 635.7 206.526C639.318 204.556 644.918 205.431 647.903 210.917C650.842 216.298 648.664 221.714 644.953 223.742C642.764 224.929 640.609 225.091 638.73 224.434V224.422ZM641.922 220.354C644.112 219.168 645.253 216.379 643.582 213.314C642.084 210.571 639.249 209.707 636.829 211.02C634.674 212.196 633.406 214.835 635.1 217.935L635.077 217.9L635.135 218.004L635.1 217.935C636.771 221 639.767 221.53 641.922 220.354Z" fill="#F46973"/>
<path d="M665.257 209.59C665.05 211.607 663.886 213.508 661.731 214.684C658.401 216.493 654.759 215.559 652.662 211.711L646.796 200.948L651.072 198.62L656.372 208.346C657.525 210.466 659.253 211.134 661.201 210.074C663.033 209.083 663.748 206.986 662.422 204.543L657.34 195.209L661.581 192.893L670.558 209.371L666.444 211.607L665.257 209.59Z" fill="#F46973"/>
<path d="M684.755 202.054C682.474 203.299 680.296 203.345 678.337 202.469L679.397 204.555L675.249 206.813L662.273 183.006L666.514 180.689L671.457 189.759C671.895 187.915 673.209 186.059 675.49 184.815C679.109 182.844 684.744 183.709 687.728 189.182C690.679 194.598 688.478 200.026 684.755 202.054ZM681.69 198.609C683.88 197.422 685.044 194.668 683.373 191.602C681.898 188.894 679.04 187.995 676.62 189.309C674.465 190.484 673.197 193.123 674.891 196.223C676.562 199.288 679.535 199.784 681.69 198.609Z" fill="#F46973"/>
<path d="M682.842 171.781L687.083 169.465L700.059 193.273L695.818 195.589L682.842 171.781Z" fill="#F46973"/>
<path d="M692.534 169.213C691.785 167.842 692.326 166.114 693.697 165.365C695.103 164.604 696.809 165.1 697.558 166.471C698.318 167.877 697.823 169.582 696.417 170.354C695.046 171.103 693.306 170.619 692.534 169.213ZM695.783 174.249L700.024 171.933L709.001 188.412L704.76 190.728L695.783 174.249Z" fill="#F46973"/>
<path d="M708.056 178.212C705.302 173.153 707.226 167.449 712.147 164.764C715.281 163.058 718.531 163.058 721.562 164.499L719.776 168.981C717.978 168.013 716.065 167.829 714.302 168.797C711.79 170.168 710.914 173.061 712.401 175.792C713.91 178.569 716.872 179.41 719.349 178.05C721.17 177.059 721.965 175.4 722.126 173.279L726.793 174.075C726.482 177.624 724.708 180.332 721.504 182.072C716.584 184.757 710.845 183.317 708.045 178.189L708.056 178.212Z" fill="#F46973"/>
<path d="M283.239 345.051L293.611 364.065L289.047 366.554L278.676 347.54L271.923 351.216L269.665 347.067L287.734 337.215L289.992 341.363L283.239 345.039V345.051Z" fill="#F46973"/>
<path d="M307.922 356.263L303.682 358.579L290.706 334.771L294.947 332.455L300.098 341.916C300.225 339.899 301.469 337.906 303.659 336.719C307.081 334.852 310.434 335.728 312.658 339.807L318.489 350.512L314.249 352.829L309.017 343.241C307.738 340.89 306.102 340.303 304.177 341.351C302.322 342.365 301.527 344.566 302.921 347.113L307.922 356.274V356.263Z" fill="#F46973"/>
<path d="M334.151 331.73L334.611 332.582L322.212 339.335C323.895 341.721 326.464 342.009 328.711 340.787C330.544 339.796 331.546 337.849 331.685 335.913L335.96 336.374C335.752 339.577 333.978 342.527 330.555 344.394C326.026 346.872 320.288 345.973 317.234 340.361C314.584 335.498 316.197 329.84 321.025 327.212C325.854 324.585 331.143 326.221 334.151 331.73ZM320.564 336.304L328.423 332.018C327.225 330.22 325.116 329.586 322.927 330.785C320.875 331.902 319.665 333.954 320.564 336.304Z" fill="#F46973"/>
<path d="M351.01 330.911C350.595 332.49 349.512 334.057 347.218 335.302C343.888 337.111 340.005 336.65 338.207 333.366C336.432 330.105 338.092 327.719 341.929 324.735L343.001 323.893C344.28 322.902 345.006 322.292 345.501 321.808L345.306 321.45C344.349 319.687 343.035 319.468 341.053 320.552C339.164 321.577 338.564 323.133 339.44 324.815L335.395 327.016C333.39 323.502 335.292 319.376 339.463 317.094C343.773 314.744 347.253 315.009 349.569 319.33L353.026 325.737C353.822 327.201 354.213 327.293 355.423 326.636L356.99 329.505C356.622 329.92 356.138 330.266 355.389 330.669C353.856 331.51 352.485 331.868 351.021 330.888L351.01 330.911ZM346.389 331.361C348.152 330.404 349.235 328.664 348.117 326.613L347.23 324.977C346.539 325.564 345.617 326.359 344.188 327.477C342.413 328.872 342.079 329.897 342.632 330.911C343.289 332.121 344.695 332.283 346.389 331.361Z" fill="#F46973"/>
<path d="M368.779 323.088L365.517 324.863C362.291 326.626 360.124 326.073 357.797 321.797L353.798 314.457L351.516 315.701L349.592 312.175L351.874 310.931L349.511 306.598L353.717 304.305L356.08 308.638L359.802 306.609L361.726 310.136L358.004 312.164L362.187 319.827C362.809 320.968 363.34 321.486 364.711 320.737L366.866 319.562L368.79 323.088H368.779Z" fill="#F46973"/>
<path d="M383.334 304.913L383.795 305.754L371.395 312.507C373.078 314.892 375.647 315.18 377.895 313.959C379.727 312.968 380.729 311.02 380.868 309.085L385.143 309.545C384.935 312.749 383.161 315.699 379.738 317.566C375.21 320.043 369.471 319.145 366.417 313.533C363.767 308.67 365.38 303.012 370.208 300.384C375.037 297.757 380.326 299.393 383.334 304.901V304.913ZM369.747 309.488L377.606 305.201C376.408 303.403 374.299 302.77 372.11 303.968C370.059 305.086 368.849 307.137 369.747 309.488Z" fill="#F46973"/>
<path d="M395.364 308.6L391.123 310.917L382.146 294.449L386.283 292.191L387.724 294.668C387.897 292.502 389.061 290.52 391.377 289.252C391.676 289.091 391.988 288.964 392.126 288.93L394.408 293.101L393.301 293.712C390.858 295.049 389.291 297.457 391.043 300.661L395.376 308.623L395.364 308.6Z" fill="#F46973"/>
<path d="M417.028 296.79L403.626 304.096L401.54 300.282L404.963 286.615L396.804 291.063L394.868 287.502L407.947 280.369L410.01 284.149L406.703 297.793L415.081 293.218L417.016 296.779L417.028 296.79Z" fill="#F46973"/>
<path d="M431.928 278.432L432.389 279.274L419.99 286.027C421.672 288.412 424.242 288.7 426.489 287.478C428.322 286.487 429.324 284.54 429.462 282.604L433.738 283.065C433.53 286.269 431.756 289.219 428.333 291.085C423.804 293.563 418.066 292.664 415.012 287.052C412.361 282.189 413.975 276.531 418.803 273.904C423.631 271.276 428.921 272.913 431.928 278.421V278.432ZM418.342 283.007L426.201 278.721C425.003 276.923 422.894 276.289 420.704 277.488C418.653 278.605 417.443 280.657 418.342 283.007Z" fill="#F46973"/>
<path d="M443.959 282.109L439.718 284.425L430.741 267.958L434.89 265.699L436.146 267.854C436.261 265.803 437.482 263.786 439.695 262.576C443.118 260.709 446.471 261.585 448.695 265.665L454.526 276.358L450.285 278.675L445.053 269.087C443.774 266.736 442.138 266.149 440.214 267.197C438.358 268.211 437.563 270.412 438.958 272.959L443.959 282.12V282.109Z" fill="#F46973"/>
<path d="M467.479 269.295L464.218 271.07C460.991 272.833 458.825 272.28 456.497 268.004L452.498 260.664L450.217 261.909L448.292 258.382L450.574 257.138L448.211 252.805L452.418 250.512L454.78 254.845L458.502 252.816L460.426 256.343L456.704 258.371L460.887 266.034C461.51 267.175 462.04 267.693 463.411 266.944L465.566 265.769L467.49 269.295H467.479Z" fill="#F46973"/>
<path d="M475.211 265.077L470.97 267.393L461.993 250.926L466.13 248.667L467.571 251.145C467.743 248.979 468.907 246.985 471.224 245.729C471.523 245.568 471.834 245.441 471.973 245.406L474.254 249.578L473.148 250.177C470.705 251.514 469.138 253.922 470.889 257.126L475.222 265.089L475.211 265.077Z" fill="#F46973"/>
<path d="M493.107 252.655C492.9 254.671 491.736 256.573 489.581 257.748C486.251 259.557 482.609 258.624 480.512 254.775L474.646 244.012L478.922 241.684L484.223 251.41C485.375 253.53 487.103 254.199 489.051 253.139C490.883 252.148 491.598 250.05 490.272 247.607L485.191 238.273L489.431 235.957L498.408 252.436L494.294 254.671L493.107 252.655Z" fill="#F46973"/>
<path d="M507.339 247.564L503.098 249.88L494.121 233.401L498.258 231.142L499.457 233.194C499.652 231.223 500.713 229.299 502.775 228.169C504.896 227.017 507.189 227.029 509.09 228.273C509.263 226.268 510.404 224.009 512.755 222.719C516.212 220.829 519.68 221.693 521.766 225.507L527.724 236.432L523.449 238.76L518.182 229.103C516.938 226.821 515.301 226.233 513.481 227.224C511.787 228.146 511.072 230.186 512.478 232.767L517.514 241.998L513.273 244.314L508.007 234.657C506.762 232.375 505.161 231.765 503.305 232.779C501.611 233.701 500.885 235.706 502.291 238.287L507.339 247.552V247.564Z" fill="#F46973"/>
<path d="M528.726 207.723C527.977 206.352 528.519 204.623 529.89 203.874C531.296 203.114 533.001 203.609 533.75 204.981C534.511 206.386 534.015 208.092 532.609 208.864C531.238 209.613 529.498 209.118 528.726 207.723ZM539.512 233.11C539.938 232.96 540.319 232.798 540.641 232.626C541.621 232.096 542.07 231.3 541.321 229.929L531.964 212.771L536.205 210.454L545.712 227.901C547.682 231.519 547.129 233.985 543.476 235.979C542.762 236.371 542.116 236.67 541.563 236.889L539.501 233.11H539.512Z" fill="#F46973"/>
<path d="M559.114 216.678C558.906 218.695 557.742 220.596 555.587 221.772C552.257 223.581 548.616 222.647 546.518 218.798L540.653 208.035L544.928 205.708L550.229 215.434C551.381 217.554 553.11 218.222 555.057 217.162C556.89 216.171 557.604 214.074 556.279 211.631L551.197 202.297L555.438 199.98L564.414 216.459L560.301 218.695L559.114 216.678Z" fill="#F46973"/>
<path d="M573.345 211.585L569.104 213.901L560.127 197.423L564.276 195.164L565.532 197.319C565.647 195.268 566.869 193.251 569.081 192.041C572.504 190.174 575.857 191.05 578.081 195.129L583.912 205.823L579.671 208.139L574.44 198.552C573.161 196.201 571.524 195.613 569.6 196.662C567.745 197.676 566.949 199.877 568.344 202.424L573.345 211.585Z" fill="#F46973"/>
<path d="M599.642 205.801C595.205 208.22 590.942 207.921 588.406 204.441L592.612 202.148C593.822 203.519 595.586 203.404 597.637 202.286C600.08 200.949 600.932 199.094 599.561 196.582L598.351 194.358C597.971 196.386 596.784 197.999 594.468 199.267C590.815 201.26 585.353 200.465 582.472 195.187C579.625 189.967 582.161 184.908 585.675 182.984C588.084 181.67 590.227 181.555 591.886 182.35L591.045 180.564L595.125 178.34L603.825 194.288C606.487 199.186 604.343 203.231 599.642 205.789V205.801ZM595.044 188.204C593.707 185.761 590.861 185.196 588.706 186.372C586.263 187.709 585.572 190.405 586.874 192.79C588.349 195.498 591.08 196.086 593.327 194.853C595.482 193.678 596.588 191.05 595.032 188.216L595.044 188.204Z" fill="#F46973"/>
<path d="M620.028 175.896L620.488 176.748L608.089 183.501C609.772 185.886 612.341 186.175 614.588 184.953C616.409 183.962 617.423 182.015 617.561 180.079L621.837 180.54C621.629 183.743 619.855 186.693 616.432 188.56C611.903 191.026 606.165 190.139 603.111 184.527C600.46 179.664 602.074 174.006 606.902 171.378C611.731 168.751 617.02 170.387 620.028 175.896ZM606.441 180.47L614.3 176.184C613.102 174.386 610.993 173.752 608.804 174.951C606.752 176.068 605.542 178.12 606.441 180.47Z" fill="#F46973"/>
<path d="M625.155 180.345L625.996 175.989C628.347 176.657 630.387 176.346 632.081 175.424C633.74 174.514 634.835 173.327 634.224 172.221C633.74 171.345 632.888 171.253 630.548 172.071L628.877 172.647C625.247 173.903 622.528 173.569 621.018 170.792C619.048 167.173 621.56 163.394 624.821 161.619C627.137 160.351 629.788 159.718 632.473 160.202L631.874 164.546C629.915 164.131 628.221 164.292 626.653 165.145C625.155 165.963 624.118 167.162 624.706 168.245C625.167 169.098 625.95 169.052 628.324 168.222L630.03 167.634C633.729 166.344 636.587 166.931 638.085 169.674C640.136 173.431 637.601 177.003 633.948 178.996C631.528 180.31 628.301 181.14 625.167 180.356L625.155 180.345Z" fill="#F46973"/>
<path d="M640.862 144.736L649.931 139.793C655.439 136.785 659.887 138.341 662.365 142.881C664.877 147.479 663.69 152.146 658.205 155.131L653.768 157.551L658.055 165.41L653.492 167.899L640.873 144.736H640.862ZM647.684 146.396L651.51 153.414L655.912 151.017C658.193 149.772 658.85 147.64 657.675 145.485C656.557 143.434 654.333 142.777 652.051 144.022L647.684 146.407V146.396Z" fill="#F46973"/>
<path d="M683.384 148.944C683.176 150.96 682.012 152.862 679.857 154.037C676.527 155.846 672.886 154.913 670.788 151.064L664.923 140.301L669.198 137.973L674.499 147.699C675.651 149.82 677.368 150.488 679.327 149.428C681.148 148.437 681.874 146.339 680.549 143.896L675.467 134.562L679.708 132.246L688.684 148.725L684.571 150.96L683.384 148.944Z" fill="#F46973"/>
<path d="M702.882 141.396C700.6 142.641 698.422 142.687 696.463 141.811L697.512 143.897L693.375 146.155L680.399 122.347L684.64 120.031L689.584 129.1C690.022 127.257 691.335 125.401 693.617 124.157C697.235 122.186 702.87 123.05 705.855 128.524C708.805 133.94 706.604 139.368 702.882 141.396ZM699.817 137.95C702.006 136.763 703.17 134.009 701.499 130.944C700.024 128.236 697.166 127.337 694.746 128.651C692.591 129.826 691.324 132.465 693.018 135.565C694.689 138.63 697.662 139.126 699.817 137.95Z" fill="#F46973"/>
<path d="M700.98 111.123L705.221 108.807L718.197 132.614L713.956 134.931L700.98 111.123Z" fill="#F46973"/>
<path d="M710.66 108.553C709.911 107.182 710.453 105.453 711.824 104.704C713.23 103.944 714.935 104.439 715.684 105.811C716.445 107.217 715.949 108.922 714.543 109.694C713.172 110.443 711.432 109.959 710.66 108.553ZM713.91 113.589L718.15 111.273L727.127 127.752L722.887 130.068L713.91 113.589Z" fill="#F46973"/>
<path d="M736.07 122.888L731.829 125.204L718.854 101.396L723.094 99.0801L730.815 113.243L732.843 103.298L738.156 100.405L735.528 111.272L747.259 116.803L741.751 119.811L734.606 116.17C733.419 115.547 732.567 116.469 733.085 117.426L736.07 122.911V122.888Z" fill="#F46973"/>
<path d="M759.151 107.643C758.944 109.66 757.78 111.561 755.625 112.736C752.295 114.546 748.653 113.612 746.556 109.763L740.69 99.0003L744.966 96.6725L750.267 106.398C751.419 108.519 753.147 109.187 755.095 108.127C756.927 107.136 757.642 105.039 756.316 102.596L751.234 93.2615L755.475 90.9453L764.452 107.424L760.338 109.66L759.151 107.643Z" fill="#F46973"/>
<path d="M773.384 102.55L769.143 104.866L760.166 88.3874L764.315 86.1288L765.513 88.18C765.709 86.2095 766.769 84.2735 768.832 83.1557C770.952 82.0034 773.245 82.0149 775.147 83.2594C775.32 81.2543 776.46 78.9957 778.811 77.7051C782.268 75.8152 785.737 76.6795 787.823 80.4938L793.78 91.4181L789.505 93.7459L784.239 84.0891C782.994 81.8075 781.358 81.2198 779.537 82.2108C777.843 83.1327 777.129 85.1723 778.535 87.7536L783.57 96.984L779.33 99.3003L774.064 89.6435C772.819 87.3618 771.217 86.7511 769.362 87.7652C767.668 88.687 766.942 90.6921 768.348 93.2734L773.395 102.538L773.384 102.55Z" fill="#F46973"/>
<path d="M563.02 57.25C565.521 63.9913 568.033 70.7211 570.499 77.4623C572.919 84.0999 573.426 91.0256 572.504 97.9167C571.064 108.772 569.888 119.754 567.249 130.344C563.458 145.532 556.648 159.257 543.753 169.248C538.613 173.235 533.082 174.917 526.767 174.456C522.93 174.18 519.887 172.497 517.594 169.248C513.826 163.878 511.856 157.908 512.282 151.478C513.066 139.736 513.941 127.982 515.543 116.331C516.834 106.917 522.158 98.9538 527.055 91.0371C528.784 88.2484 531.261 85.621 535.329 85.5519C543.096 85.4251 547.648 89.7465 547.256 97.5364C546.876 105.107 543.638 111.676 538.994 117.472C535.825 121.425 532.333 125.147 528.703 128.685C526.214 131.105 524.843 133.72 524.612 137.178C524.324 141.626 523.218 146.074 523.379 150.487C523.54 154.659 524.543 158.899 525.811 162.91C526.825 166.136 528.749 166.782 532.079 165.929C536.62 164.776 539.973 161.93 542.727 158.231C549.999 148.448 554.585 137.419 557.328 125.654C561.349 108.38 563.435 90.8527 563.055 73.0834C562.94 67.8632 562.536 62.643 562.26 57.4229L563.02 57.273V57.25ZM526.272 119.535C531.572 113.739 537.012 107.896 537.092 98.5505C530.535 105.442 526.709 111.803 526.272 119.535Z" fill="#654355"/>
<path d="M504.572 1.93652C509.343 1.49863 507.764 -2.22349 513.434 2.39747C523.194 15.5804 509.654 65.3392 508.721 92.8806C508.479 99.956 507.972 106.271 508.087 113.358C508.479 136.993 504.169 159.809 497.716 182.292C496.414 186.832 494.074 189.356 488.14 188.572C502.567 126.91 498.511 64.0486 504.572 1.93652Z" fill="#654355"/>
<path d="M473.874 200.269C479.958 140.346 474.496 80.4234 472.894 20.5008C473.989 20.132 475.095 19.7633 476.19 19.3945C478.333 21.5379 481.986 23.4624 482.366 25.8823C490.594 40.0678 491.055 44.7233 489.211 73.0713C491.078 91.6589 487.137 113.876 486.434 133.466C485.743 152.722 482.182 171.886 479.647 191.05C479.232 194.207 477.688 197.226 476.662 200.303C475.729 200.303 474.807 200.28 473.874 200.269Z" fill="#654355"/>
<path d="M452.21 36.1367C462.12 41.9907 467.72 58.7344 464.678 72.217C452.717 72.4014 450.735 71.0416 449.363 60.1518C448.372 52.2697 445.584 44.0649 452.21 36.1482V36.1367Z" fill="#654355"/>
<path d="M457.268 91.9136C462.062 94.2644 469.483 87.7305 469.691 91.372C470.382 103.956 468.158 138.976 469.622 151.479C468.262 179.862 465.877 189.737 462.638 207.714C462.247 209.857 461.279 211.92 460.38 213.925C460.172 214.398 459.147 214.501 457.395 215.239C457.211 179.689 457.015 144.599 456.946 109.499C456.946 108.335 456.519 93.2503 457.28 91.9021L457.268 91.9136Z" fill="#654355"/>
<path d="M438.958 230C425.222 222.683 425.613 209.938 424.853 198.414C423.574 179.101 423.827 159.695 422.813 140.358C422.248 129.653 420.428 119.017 418.987 106.848C420.601 105.235 423.067 102.769 426.812 99.0234C428.667 102.838 430.834 105.258 430.845 107.666C430.88 127.729 430.799 147.791 430.177 167.842C429.681 183.848 432.32 199.417 434.74 217.716C437.241 213.867 439.004 212.323 439.257 210.56C440.433 202.482 442.034 194.323 441.919 186.222C441.608 163.867 440.467 141.534 439.776 119.178C439.615 114.142 438.969 108.807 445.008 103.564C446.725 107.562 449.075 110.582 449.191 113.681C450.182 140.474 451.322 167.278 451.253 194.07C451.219 206.711 448.292 219.226 438.981 230H438.958Z" fill="#654355"/>
<path d="M388.058 105.281C394.615 103.955 398.314 105.845 402.197 110.524C414.804 125.689 419.079 143.205 419.437 162.357C419.748 179.112 420.6 195.856 421.315 212.6C421.707 221.715 420.174 230.427 415.98 238.539C413.122 244.071 410.402 244.958 405.378 241.109C401.967 238.493 398.348 235.002 396.966 231.13C394.096 223.155 392.345 214.732 390.674 206.389C385.43 180.207 386.226 153.795 387.862 127.337C388.311 120.031 388.023 112.679 388.069 105.281H388.058ZM405.482 233.596C415.254 221.116 411.451 151.386 400.354 128.293C393.025 144.691 396.194 216.391 405.482 233.596Z" fill="#654355"/>
<path d="M328.666 100.764C335.591 94.1727 337.17 94.6567 342.782 105.673C344.637 102.366 346.078 99.7732 347.541 97.1919C351.874 89.5287 357.29 88.6875 362.752 95.5786C365.99 99.658 368.929 104.59 369.908 109.522C373.665 128.467 377.249 147.492 379.634 166.645C383.161 194.923 385.627 223.329 388.484 251.688C388.83 255.122 388.807 258.591 388.957 262.382C384.532 263.592 381.697 263.327 381.029 259.052C379.461 248.992 377.675 238.943 376.546 228.826C372.766 194.889 369.551 160.894 365.357 127.015C364.366 119.006 363.063 110.248 355.377 103.806C350.964 108.45 351.021 113.924 351.321 118.822C352.404 136.718 354.075 154.568 355.642 172.429C356.069 177.327 357.002 182.178 357.474 187.076C359.871 211.932 362.234 236.788 364.527 261.656C364.942 266.093 364.976 270.564 365.207 275.427C352.83 271.912 350.134 268.72 349.35 258.741C346.366 220.851 343.669 182.927 340.028 145.095C338.818 132.558 335.188 120.239 332.411 107.874C331.904 105.593 330.198 103.576 328.677 100.753L328.666 100.764Z" fill="#654355"/>
<path d="M345.005 283.607C321.797 279.412 314.975 263.579 310.077 247.054C305.768 232.488 303.486 217.323 300.167 202.458C299.119 197.768 297.793 193.112 296.353 188.526C289.496 166.746 289.911 144.506 292.423 122.208C293.334 114.118 294.993 106.075 296.848 98.1348C298.658 90.3794 301.469 89.3999 308.914 92.4076C316.773 95.5766 321.958 100.843 323.33 109.359C326.291 127.785 324.816 145.727 316.404 162.598C314.502 166.4 310.965 169.397 306.989 174.19C311.679 199.024 316.047 225.447 321.947 251.514C323.986 260.536 327.824 270.009 338.472 273.961C340.822 274.837 341.975 278.94 344.994 283.595L345.005 283.607ZM306.563 156.34C314.249 144.229 315.712 121.24 309.409 111.756C304.12 121.021 302.645 144.183 306.563 156.34Z" fill="#654355"/>
<path d="M309.917 307.634C298.554 308.786 295.178 307.311 291.617 297.101C284.403 276.405 277.397 255.605 271.14 234.609C262.705 206.319 255.364 177.694 246.871 149.415C243.887 139.47 238.885 130.125 234.817 120.491C232.87 115.859 230.957 111.215 227.846 103.736C234.864 105.557 238.885 106.605 241.674 107.331C245.258 96.3493 248.796 85.4825 252.368 74.5352C267.153 80.6081 283.77 102.607 283.77 115.478C283.77 119.615 281.396 123.683 279.31 130.309C273.249 122.784 269.1 117.645 264.963 112.505C264.11 112.782 263.246 113.047 262.393 113.324C263.972 124.409 264.779 135.656 267.279 146.534C272.615 169.708 278.515 192.779 284.761 215.733C292.504 244.174 300.848 272.464 308.868 300.835C309.49 303.025 309.559 305.352 309.894 307.646L309.917 307.634Z" fill="#654355"/>
<path d="M244.474 190C241.225 182.706 236.442 177.866 229.125 174.824C222.245 171.966 216.172 168.313 212.646 160.719C209.385 153.712 203.911 152.871 198.219 158.391C193.863 162.609 190.325 168.244 188.009 173.89C181.659 189.401 173.454 203.586 159.165 212.771C134.908 228.362 108.911 236.924 79.6986 228.927C74.4554 227.498 69.0969 225.931 63.5079 229.676C66.4119 233.859 68.5438 237.788 71.5053 240.946C73.9368 243.539 77.0827 246.201 80.3785 247.088C94.2644 250.833 108.254 251.72 122.186 246.742C127.084 244.991 132.165 243.688 137.213 242.386C169.433 234.078 191.42 214.476 203.542 182.095C209.362 186.209 214.409 190.784 220.286 193.653C226.532 196.695 230.127 201.097 232.259 207.366C236.431 219.673 240.706 231.934 245.016 244.195C250.397 259.487 251.849 274.687 248.98 291.062C245.822 309.05 241.72 326.531 235.209 343.563C230.761 355.202 225.08 366.046 216.437 375.023C198.195 393.967 176.45 401.619 150.419 394.474C125.021 387.503 105.35 371.646 87.8342 353.036C64.4644 328.191 49.3109 298.31 38.0178 266.424C27.0704 235.495 24.6159 203.598 31.3457 171.666C38.6747 136.899 56.4671 108.655 90.0352 93.3403C115.687 81.6439 140.462 85.2162 163.659 100.75C168.177 103.769 171.841 103.884 175.552 100.254C179.078 96.7974 178.686 92.9831 176.37 89.0881C175.99 88.4543 175.425 87.9473 174.964 87.3596C161.931 70.7887 142.986 65.0845 123.926 59.6108C122.9 59.3112 121.702 59.5417 120.584 59.6108C94.4948 61.1435 70.5949 69.3483 50.7975 86.357C23.2215 110.061 6.54693 140.506 2.01817 176.759C-2.82173 215.594 1.9375 253.011 18.3586 289.172C41.9819 341.178 78.0507 380.289 130.172 404.419C183.353 429.045 239.911 397.367 256.032 348.864C259.317 338.988 261.886 328.882 264.779 318.88C269.849 301.375 274.608 283.79 272.039 265.307C269.814 242.939 255.306 212.183 244.474 190Z" fill="#654355"/>
<path d="M176.612 140.45C176.243 139.678 175.875 138.894 175.518 138.111C174.93 136.832 174.342 135.564 173.697 134.319C173.236 133.421 172.717 132.545 172.21 131.669C171.369 130.24 170.585 128.903 170.009 127.463C166.368 118.175 152.862 109.774 140.993 112.909C132.028 115.248 124.618 120.41 117.934 125.654C117.024 126.368 116.563 127.163 116.574 128.016C116.586 128.961 117.151 129.825 118.291 130.666C120.711 132.464 124.042 133.271 127.211 132.683C130.115 132.199 132.592 130.632 134.182 128.304C137.398 123.579 144.427 121.932 149.232 124.778C152.597 126.76 155.282 129.71 157.437 133.766C147.792 138.641 143.286 142.455 139.161 149.162L138.873 149.634L139.149 150.118C141.638 154.463 146.928 156.295 152.332 154.705C157.575 153.149 161.47 151.052 164.593 148.09C164.985 147.721 165.48 147.41 165.953 147.122C165.953 147.122 165.976 147.122 165.976 147.111L172.533 152.965L173.87 151.432C174.238 151.006 174.515 150.683 174.815 150.372C177.742 147.422 178.341 144.091 176.601 140.461L176.612 140.45ZM159.258 141.222C158.497 146.096 154.752 148.436 147.907 148.298C150.097 144.103 154.429 141.406 159.258 141.222Z" fill="#654355"/>
<path d="M146.028 185.923C141.557 189.437 139.321 191.661 136.682 193.182C129.284 197.435 121.748 201.433 114.223 205.467C106.053 209.846 98.839 211.09 96.0848 202.067C94.5753 197.124 93.8493 191.949 92.6047 186.914C88.5254 170.366 86.7623 150.741 82.7405 134.182C82.0261 131.232 81.98 128.12 81.4614 123.811C91.0721 131.209 102.964 166.39 105.454 191.696C118.763 195.741 129.653 181.417 146.028 185.946V185.923Z" fill="#654355"/>
</svg>
