<svg width="82" height="27" viewBox="0 0 82 27" fill="none" xmlns="http://www.w3.org/2000/svg">
<path d="M8.73997 17.4209C10.8221 17.4209 12.51 15.733 12.51 13.6509C12.51 11.5687 10.8221 9.88086 8.73997 9.88086C6.65786 9.88086 4.96997 11.5687 4.96997 13.6509C4.96997 15.733 6.65786 17.4209 8.73997 17.4209Z" fill="black"/>
<path d="M8.73999 20.5091V6.78906" stroke="black" stroke-width="2"/>
<path d="M8.73986 8.67016C9.77816 8.67016 10.6199 7.82845 10.6199 6.79016C10.6199 5.75186 9.77816 4.91016 8.73986 4.91016C7.70157 4.91016 6.85986 5.75186 6.85986 6.79016C6.85986 7.82845 7.70157 8.67016 8.73986 8.67016Z" fill="black"/>
<path d="M8.73986 22.3909C9.77816 22.3909 10.6199 21.5492 10.6199 20.5109C10.6199 19.4726 9.77816 18.6309 8.73986 18.6309C7.70157 18.6309 6.85986 19.4726 6.85986 20.5109C6.85986 21.5492 7.70157 22.3909 8.73986 22.3909Z" fill="black"/>
<path d="M13.5901 18.5008L3.89014 8.80078" stroke="black" stroke-width="2"/>
<path d="M3.89001 10.6799C4.92831 10.6799 5.77001 9.83822 5.77001 8.79992C5.77001 7.76163 4.92831 6.91992 3.89001 6.91992C2.85171 6.91992 2.01001 7.76163 2.01001 8.79992C2.01001 9.83822 2.85171 10.6799 3.89001 10.6799Z" fill="black"/>
<path d="M13.59 20.3811C14.6283 20.3811 15.47 19.5394 15.47 18.5011C15.47 17.4628 14.6283 16.6211 13.59 16.6211C12.5517 16.6211 11.71 17.4628 11.71 18.5011C11.71 19.5394 12.5517 20.3811 13.59 20.3811Z" fill="black"/>
<path d="M15.5999 13.6504H1.87988" stroke="black" stroke-width="2"/>
<path d="M1.88 15.5295C2.9183 15.5295 3.76 14.6878 3.76 13.6495C3.76 12.6112 2.9183 11.7695 1.88 11.7695C0.841705 11.7695 0 12.6112 0 13.6495C0 14.6878 0.841705 15.5295 1.88 15.5295Z" fill="black"/>
<path d="M15.6 15.5295C16.6383 15.5295 17.48 14.6878 17.48 13.6495C17.48 12.6112 16.6383 11.7695 15.6 11.7695C14.5617 11.7695 13.72 12.6112 13.72 13.6495C13.72 14.6878 14.5617 15.5295 15.6 15.5295Z" fill="black"/>
<path d="M13.5901 8.80078L3.89014 18.5008" stroke="black" stroke-width="2"/>
<path d="M3.89001 20.3811C4.92831 20.3811 5.77001 19.5394 5.77001 18.5011C5.77001 17.4628 4.92831 16.6211 3.89001 16.6211C2.85171 16.6211 2.01001 17.4628 2.01001 18.5011C2.01001 19.5394 2.85171 20.3811 3.89001 20.3811Z" fill="black"/>
<path d="M13.59 10.6799C14.6283 10.6799 15.47 9.83822 15.47 8.79992C15.47 7.76163 14.6283 6.91992 13.59 6.91992C12.5517 6.91992 11.71 7.76163 11.71 8.79992C11.71 9.83822 12.5517 10.6799 13.59 10.6799Z" fill="black"/>
<path d="M25.324 11.6504V4.88239H22.744V3.25039H29.86V4.88239H27.28V11.6504H25.324ZM30.9486 11.6504V3.25039H32.9046V6.47839H36.5646V3.25039H38.5206V11.6504H36.5646V8.11039H32.9046V11.6504H30.9486ZM42.3913 2.55439L43.0273 0.92239H44.9713L44.0233 2.55439H42.3913ZM46.3753 10.0904V11.6504H40.1713V3.25039H46.3033V4.81039H42.0793V6.57439H45.9673V8.09839H42.0793V10.0904H46.3753ZM52.0607 2.55439L51.3527 1.71439L50.6567 2.55439H49.0967L50.5007 0.92239H52.2407L53.6327 2.55439H52.0607ZM53.6687 11.6504L53.0327 9.85039H49.6007L48.9647 11.6504H46.9967L50.2007 3.25039H52.5287L55.7327 11.6504H53.6687ZM50.1527 8.30239H52.4807L51.3167 5.00239L50.1527 8.30239ZM57.5505 11.6504V4.88239H54.9705V3.25039H62.0865V4.88239H59.5065V11.6504H57.5505ZM66.2472 8.61439H65.0952V11.6504H63.1752V3.25039H67.0632C69.1872 3.25039 70.0872 4.46239 70.0872 5.89039C70.0872 7.16239 69.3672 7.97839 68.4312 8.30239V8.32639C68.5272 8.49439 68.5992 8.60239 68.7312 8.84239L70.3272 11.6504H68.1072L66.5472 8.78239C66.4632 8.63839 66.4392 8.61439 66.2472 8.61439ZM65.0952 4.81039V7.05439H66.8232C67.6872 7.05439 68.1312 6.61039 68.1312 5.93839C68.1312 5.25439 67.6752 4.81039 66.8232 4.81039H65.0952ZM77.6643 10.0904V11.6504H71.4603V3.25039H77.5923V4.81039H73.3683V6.57439H77.2563V8.09839H73.3683V10.0904H77.6643Z" fill="black"/>
<path d="M25.324 23.6504V16.8824H22.744V15.2504H29.86V16.8824H27.28V23.6504H25.324ZM30.9486 23.6504V15.2504H32.9046V18.4784H36.5646V15.2504H38.5206V23.6504H36.5646V20.1104H32.9046V23.6504H30.9486ZM46.3753 22.0904V23.6504H40.1713V15.2504H46.3033V16.8104H42.0793V18.5744H45.9673V20.0984H42.0793V22.0904H46.3753ZM53.6687 23.6504L53.0327 21.8504H49.6007L48.9647 23.6504H46.9967L50.2007 15.2504H52.5287L55.7327 23.6504H53.6687ZM50.1527 20.3024H52.4807L51.3167 17.0024L50.1527 20.3024ZM57.5505 23.6504V16.8824H54.9705V15.2504H62.0865V16.8824H59.5065V23.6504H57.5505ZM69.3792 22.0904V23.6504H63.1752V15.2504H69.3072V16.8104H65.0832V18.5744H68.9712V20.0984H65.0832V22.0904H69.3792ZM73.8175 20.6144H72.6655V23.6504H70.7455V15.2504H74.6335C76.7575 15.2504 77.6575 16.4624 77.6575 17.8904C77.6575 19.1624 76.9375 19.9784 76.0015 20.3024V20.3264C76.0975 20.4944 76.1695 20.6024 76.3015 20.8424L77.8975 23.6504H75.6775L74.1175 20.7824C74.0335 20.6384 74.0095 20.6144 73.8175 20.6144ZM72.6655 16.8104V19.0544H74.3935C75.2575 19.0544 75.7015 18.6104 75.7015 17.9384C75.7015 17.2544 75.2455 16.8104 74.3935 16.8104H72.6655Z" fill="black"/>
</svg>
